<?xml version="1.0" encoding="utf-8"?>
<!-- Generator: Adobe Illustrator 27.5.0, SVG Export Plug-In . SVG Version: 6.00 Build 0)  -->
<svg version="1.1" xmlns="http://www.w3.org/2000/svg" xmlns:xlink="http://www.w3.org/1999/xlink" x="0px" y="0px"
	 viewBox="0 0 3710 3710" style="enable-background:new 0 0 3710 3710;" xml:space="preserve">
<g id="Background">
	<g>
		<g>
			<rect style="fill:#FFFFFF;" width="3710" height="3710"/>
		</g>
	</g>
</g>
<g id="Illustration">
	<g>
		<path style="fill:#F4F7FA;" d="M3201.793,1653.9c-75.221-492.358-383.627-1097.254-992.918-1160.557
			c0,0-462.602-56.269-918.626,29.012c-270.651,50.614-507.972,201.281-658.138,417.826
			c-150.169,216.546-200.329,480.594-139.453,732.331c39.539,163.506,66.257,332.728,58.924,500.739
			c-12.761,292.409-5.419,565.351,278.357,739.735c253.379,155.706,572.26,293.033,876.478,317.086
			c206.744,16.346,438.594-10.106,637.857-63.932C3359.757,2891.827,3277.014,2146.257,3201.793,1653.9z"/>
		<g>
			<g>
				<path style="fill:#D8DEE8;" d="M2853.706,1843.473l-717.882,34.281c-1.566,0.075-3.06-0.475-4.17-1.546l-228.376-219.425
					l-1107.022,39.062c-3.899,0.138-6.98-2.809-6.888-6.59c0.091-3.78,3.32-6.949,7.22-7.085l1109.505-38.381
					c1.607-0.055,3.136,0.52,4.272,1.62l228.208,219.487l713.09-33.556l102.194-112.504c1.077-1.186,2.511-1.886,3.996-1.946
					l105.552-4.311c3.052-0.124,5.456,2.48,5.375,5.824c-0.081,3.343-2.615,6.151-5.668,6.279l-103.24,4.286l-102.125,112.52
					C2856.659,1842.688,2855.208,1843.402,2853.706,1843.473z"/>
				<path style="fill:#D8DEE8;" d="M2860.842,1781.996l-717.354,31.773c-1.564,0.068-3.056-0.487-4.165-1.563l-228.205-220.161
					l-1113.206,35.423c-3.899,0.124-6.979-2.836-6.888-6.616c0.092-3.781,3.32-6.937,7.219-7.059l1115.689-34.732
					c1.605-0.049,3.132,0.534,4.269,1.636l228.032,220.227l712.565-31.066l102.124-112.122c1.074-1.179,2.508-1.874,3.992-1.931
					l66.764-2.495c3.062-0.114,5.476,2.505,5.394,5.854c-0.081,3.35-2.626,6.155-5.688,6.272l-64.453,2.453l-102.053,112.139
					C2863.793,1781.222,2862.344,1781.932,2860.842,1781.996z"/>
				<path style="fill:#D8DEE8;" d="M2867.972,1720.559l-716.823,29.268c-1.564,0.065-3.054-0.498-4.163-1.577l-228.029-220.902
					l-1071.918,30.397c-3.88,0.11-6.945-2.853-6.854-6.625c0.091-3.773,3.305-6.912,7.185-7.018l1074.399-29.723
					c1.603-0.043,3.132,0.542,4.265,1.651l227.859,220.964l712.04-28.577l102.051-111.741c1.074-1.175,2.508-1.865,3.988-1.916
					l38.981-1.322c3.071-0.105,5.489,2.524,5.407,5.88c-0.081,3.354-2.63,6.154-5.702,6.26l-36.67,1.268l-101.98,111.757
					C2870.922,1719.795,2869.473,1720.498,2867.972,1720.559z"/>
				<path style="fill:#D8DEE8;" d="M2875.099,1659.161l-716.296,26.765c-1.563,0.058-3.052-0.507-4.16-1.59l-227.855-221.64
					L848.69,1489.532c-3.88,0.094-6.945-2.879-6.854-6.652c0.091-3.771,3.304-6.898,7.184-6.993l1080.577-26.149
					c1.602-0.04,3.128,0.553,4.263,1.664l227.683,221.704l711.515-26.093l101.98-111.359c2.236-2.441,5.765-2.55,7.884-0.24
					c2.121,2.309,2.028,6.155-0.208,8.598l-103.583,113.208C2878.044,1658.406,2876.599,1659.104,2875.099,1659.161z"/>
				<path style="fill:#D8DEE8;" d="M2819.833,2775.256c-1.451,0.146-2.887-0.307-3.966-1.392l-178.569-179.753
					c-1.057-1.064-1.629-2.581-1.589-4.227l16.799-693.507c0.083-3.423,2.737-6.321,5.931-6.48c3.195-0.159,5.711,2.481,5.628,5.9
					l-16.726,690.498l176.753,178.105c2.154,2.172,2.06,6.046-0.21,8.661C2822.746,2774.367,2821.284,2775.109,2819.833,2775.256z"
					/>
				<path style="fill:#D8DEE8;" d="M2893.815,2743.49c-1.439,0.142-2.863-0.313-3.932-1.394l-193.846-196.33
					c-1.05-1.065-1.617-2.577-1.578-4.217l15.698-648.066c0.083-3.412,2.719-6.302,5.893-6.459c3.175-0.158,5.674,2.471,5.592,5.881
					l-15.626,645.096l192.024,194.682c2.138,2.166,2.044,6.025-0.209,8.624C2896.705,2742.608,2895.253,2743.347,2893.815,2743.49z"
					/>
				<path style="fill:#D8DEE8;" d="M2950.886,2695.373c-1.429,0.138-2.844-0.317-3.906-1.401l-192.58-196.239
					c-1.043-1.063-1.608-2.573-1.568-4.208l14.605-602.917c0.082-3.398,2.702-6.28,5.858-6.436c3.152-0.157,5.635,2.465,5.553,5.864
					l-14.534,599.982l190.771,194.594c2.125,2.165,2.031,6.013-0.208,8.599C2953.759,2694.504,2952.315,2695.235,2950.886,2695.373z
					"/>
				<path style="fill:#D8DEE8;" d="M3007.595,2647.562c-1.42,0.133-2.826-0.324-3.882-1.408l-191.324-196.145
					c-1.037-1.063-1.597-2.57-1.558-4.199l13.518-558.056c0.082-3.388,2.686-6.258,5.821-6.413c3.132-0.156,5.601,2.458,5.518,5.844
					l-13.448,555.161l189.529,194.501c2.11,2.166,2.017,6-0.208,8.573C3010.449,2646.703,3009.016,2647.427,3007.595,2647.562z"/>
				<path style="fill:#D8DEE8;" d="M3047.826,2583.425c-1.414,0.128-2.814-0.335-3.865-1.419l-173.954-179.417
					c-1.031-1.059-1.587-2.565-1.548-4.189l12.438-513.482c0.082-3.38,2.668-6.238,5.782-6.395c3.114-0.155,5.566,2.452,5.485,5.829
					l-12.369,510.626l172.186,177.771c2.1,2.167,2.008,5.992-0.207,8.551C3050.666,2582.576,3049.24,2583.296,3047.826,2583.425z"/>
				<path style="fill:#D8DEE8;" d="M1437.012,2439.252c-1.686,0.128-3.358-0.39-4.618-1.585c-2.514-2.388-2.412-6.573,0.227-9.348
					l246.839-259.549c1.237-1.299,2.885-2.089,4.592-2.194l911.135-56.435c3.216-0.201,5.751,2.415,5.668,5.846
					c-0.083,3.432-2.753,6.37-5.969,6.573l-908.491,56.9l-244.676,257.503C1440.402,2438.352,1438.699,2439.124,1437.012,2439.252z"
					/>
				<path style="fill:#D8DEE8;" d="M1405.431,2382.158c-1.691,0.121-3.37-0.403-4.632-1.602c-2.523-2.401-2.421-6.593,0.227-9.367
					l247.661-259.268c1.241-1.297,2.894-2.083,4.606-2.184l914.109-53.774c3.223-0.19,5.768,2.437,5.684,5.875
					c-0.083,3.437-2.762,6.375-5.986,6.567l-911.456,54.248l-245.489,257.227
					C1408.832,2381.265,1407.125,2382.034,1405.431,2382.158z"/>
				<path style="fill:#D8DEE8;" d="M1373.741,2324.863c-1.697,0.119-3.38-0.412-4.646-1.619c-2.532-2.413-2.43-6.61,0.227-9.38
					l248.484-258.986c1.245-1.298,2.905-2.078,4.622-2.176l917.095-51.092c3.235-0.18,5.787,2.459,5.704,5.902
					c-0.083,3.441-2.771,6.374-6.005,6.557l-914.432,51.58l-246.308,256.947C1377.153,2323.98,1375.441,2324.746,1373.741,2324.863z
					"/>
				<path style="fill:#D8DEE8;" d="M1341.942,2267.373c-1.705,0.111-3.394-0.426-4.663-1.635c-2.542-2.425-2.441-6.632,0.228-9.398
					l249.314-258.701c1.248-1.294,2.912-2.072,4.636-2.164l920.096-48.395c3.247-0.171,5.804,2.483,5.72,5.929
					c-0.083,3.449-2.775,6.378-6.022,6.553l-917.425,48.889l-247.131,256.665
					C1345.364,2266.498,1343.647,2267.258,1341.942,2267.373z"/>
				<path style="fill:#D8DEE8;" d="M787.082,2256.267c-1.803,0.114-3.592-0.439-4.937-1.687l-222.152-206.011
					c-1.323-1.225-2.041-2.943-1.997-4.779l11.625-479.907c0.044-1.837,0.848-3.614,2.232-4.951l324.714-313.203l1.539-63.548
					c0.091-3.763,3.29-6.835,7.147-6.871c3.855-0.032,6.901,2.982,6.81,6.742l-1.607,66.319c-0.044,1.805-0.822,3.541-2.16,4.834
					l-324.327,313.133l-11.478,473.834l219.858,204.11c2.688,2.496,2.584,6.821-0.234,9.666
					C790.707,2255.37,788.886,2256.153,787.082,2256.267z"/>
				<path style="fill:#D8DEE8;" d="M857.683,2238.167c-1.79,0.114-3.568-0.439-4.904-1.684L632.24,2031.005
					c-1.313-1.222-2.026-2.935-1.982-4.764l11.583-478.176c0.044-1.833,0.843-3.601,2.217-4.932l322.419-311.844l2.191-90.454
					c0.091-3.748,3.265-6.802,7.095-6.829c3.829-0.027,6.851,2.983,6.76,6.73l-2.258,93.195c-0.044,1.801-0.815,3.529-2.145,4.819
					l-322.035,311.771l-11.437,472.129l218.264,203.579c2.669,2.49,2.565,6.8-0.233,9.631
					C861.281,2237.278,859.475,2238.054,857.683,2238.167z"/>
				<path style="fill:#D8DEE8;" d="M927.784,2220.199c-1.78,0.109-3.543-0.442-4.87-1.684L703.968,2013.57
					c-1.303-1.221-2.01-2.926-1.966-4.749l11.542-476.461c0.044-1.823,0.836-3.589,2.2-4.913l320.148-310.492l3.166-130.686
					c0.091-3.737,3.243-6.772,7.043-6.786c3.801-0.017,6.804,2.99,6.713,6.725l-3.231,133.39c-0.043,1.792-0.809,3.517-2.13,4.797
					L727.687,1534.82l-11.396,470.435l216.686,203.053c2.651,2.483,2.547,6.776-0.232,9.597
					C931.355,2219.313,929.561,2220.087,927.784,2220.199z"/>
				<path style="fill:#D8DEE8;" d="M1045.467,2239.815c-3.799,0.241-6.799-2.583-6.709-6.312l1.404-57.949l-194.579-183.699
					c-1.286-1.214-1.982-2.908-1.938-4.718l5.946-245.479c0.091-3.771,3.299-6.938,7.174-7.083c3.871-0.143,6.931,2.786,6.84,6.553
					l-5.874,242.485l194.339,183.674c1.256,1.185,1.939,2.857,1.895,4.647l-1.47,60.699
					C1052.405,2236.361,1049.261,2239.572,1045.467,2239.815z"/>
				<path style="fill:#D8DEE8;" d="M1113.91,2235.455c-3.769,0.241-6.75-2.572-6.66-6.29l1.399-57.744L915.46,1988.332
					c-1.274-1.208-1.968-2.897-1.924-4.7l5.925-244.612c0.091-3.755,3.278-6.91,7.123-7.055c3.846-0.142,6.883,2.779,6.792,6.53
					l-5.853,241.626l192.954,183.061c1.246,1.186,1.923,2.848,1.88,4.634l-1.465,60.486
					C1120.801,2232.017,1117.68,2235.217,1113.91,2235.455z"/>
				<path style="fill:#D8DEE8;" d="M1181.875,2231.128c-3.743,0.238-6.7-2.566-6.611-6.27l1.394-57.542l-191.817-182.484
					c-1.265-1.203-1.951-2.888-1.908-4.684l5.904-243.744c0.091-3.743,3.255-6.888,7.074-7.031c3.818-0.142,6.832,2.769,6.742,6.509
					l-5.832,240.769l191.581,182.459c1.239,1.177,1.911,2.834,1.868,4.615l-1.46,60.274
					C1188.72,2227.703,1185.621,2230.89,1181.875,2231.128z"/>
				<path style="fill:#D8DEE8;" d="M1249.369,2226.833c-3.718,0.235-6.656-2.561-6.567-6.252l1.389-57.341l-190.456-181.88
					c-1.258-1.199-1.938-2.876-1.895-4.668l5.884-242.885c0.09-3.729,3.233-6.859,7.024-7.002c3.791-0.142,6.783,2.76,6.693,6.486
					l-5.812,239.92l190.224,181.854c1.229,1.177,1.897,2.83,1.854,4.602l-1.455,60.064
					C1256.164,2223.418,1253.086,2226.596,1249.369,2226.833z"/>
				<path style="fill:#D8DEE8;" d="M1247.494,2026.906c-1.721,0.093-3.428-0.467-4.711-1.704c-2.567-2.469-2.465-6.697,0.229-9.445
					l184.39-188.169c1.268-1.294,2.961-2.062,4.714-2.14l520.18-22.498c3.451-0.149,6.175,2.608,6.089,6.165
					c-0.086,3.556-2.95,6.557-6.4,6.707l-517.456,22.74l-182.231,186.135C1250.952,2026.071,1249.215,2026.815,1247.494,2026.906z"
					/>
				<path style="fill:#D8DEE8;" d="M2613.369,2795.964c-1.485,0.15-2.956-0.308-4.059-1.404l-332.522-330.367l-620.421,49.8
					c-3.562,0.285-6.373-2.406-6.285-6.018l5.699-235.248c0.087-3.613,3.039-6.73,6.6-6.969c3.559-0.239,6.368,2.49,6.281,6.097
					l-5.537,228.561l616.464-49.057c1.599-0.127,3.113,0.418,4.213,1.513l333.924,332.105c2.207,2.193,2.112,6.114-0.212,8.76
					C2616.353,2795.063,2614.854,2795.816,2613.369,2795.964z"/>
				<path style="fill:#D8DEE8;" d="M2717.201,2785.552c-1.47,0.148-2.923-0.31-4.013-1.399l-386.799-386.826l-617.048,47.396
					c-3.541,0.271-6.338-2.423-6.251-6.026l5.683-234.607c0.087-3.602,3.024-6.7,6.565-6.925c3.539-0.225,6.33,2.503,6.243,6.104
					l-5.521,227.936l613.115-46.671c1.591-0.12,3.097,0.428,4.19,1.524l388.144,388.57c2.181,2.183,2.087,6.082-0.211,8.712
					C2720.148,2784.655,2718.666,2785.404,2717.201,2785.552z"/>
				<path style="fill:#D8DEE8;" d="M2590.479,2544.347c-1.49,0.129-2.964-0.351-4.072-1.465l-210.68-212.075l-613.702,45.02
					c-3.522,0.258-6.303-2.44-6.216-6.033l4.093-168.979c0.087-3.593,3.008-6.682,6.529-6.905c3.52-0.225,6.297,2.499,6.21,6.089
					l-3.933,162.37l609.792-44.31c1.583-0.116,3.079,0.438,4.168,1.536l212.18,213.802c2.211,2.229,2.116,6.158-0.213,8.777
					C2593.47,2543.485,2591.966,2544.219,2590.479,2544.347z"/>
				<path style="fill:#D8DEE8;" d="M2588.719,2377.175c-1.49,0.115-2.966-0.379-4.073-1.504l-147.077-149.443l-609.54,41.339
					c-3.498,0.237-6.26-2.467-6.173-6.047c0.087-3.58,2.989-6.669,6.487-6.903l611.981-41.082c1.571-0.105,3.06,0.455,4.139,1.554
					l148.626,151.169c2.215,2.253,2.12,6.182-0.213,8.779C2591.712,2376.339,2590.208,2377.061,2588.719,2377.175z"/>
				<path style="fill:#D8DEE8;" d="M2827.442,1526.106l-634.757,18.88c-1.617,0.048-3.146-0.576-4.259-1.734l-179.906-187.13
					c-1.137-1.181-1.751-2.799-1.71-4.504l7.466-308.192c0.041-1.706,0.735-3.337,1.929-4.543l151.557-153.161
					c2.446-2.471,6.31-2.447,8.635,0.055c2.324,2.5,2.227,6.528-0.218,9.002l-149.553,151.276l-7.332,302.671l176.221,183.479
					l629.875-18.297l73.703-79.731c2.257-2.442,5.817-2.53,7.955-0.196c2.14,2.331,2.046,6.196-0.209,8.636l-75.343,81.575
					C2830.405,1525.372,2828.949,1526.06,2827.442,1526.106z"/>
				<path style="fill:#D8DEE8;" d="M2806.8,1440.791l-551.285,13.721c-3.343,0.083-5.981-2.683-5.896-6.186l12.892-532.189
					c0.085-3.503,2.858-6.322,6.199-6.305c3.339,0.016,5.972,2.86,5.887,6.362l-12.73,525.507l545.231-13.193
					c3.143-0.077,5.621,2.606,5.538,6.001C2812.554,1437.902,2809.943,1440.711,2806.8,1440.791z"/>
				<path style="fill:#D8DEE8;" d="M2893.04,1383.66l-581.885,12.668c-3.323,0.073-5.944-2.692-5.859-6.185l10.711-442.174
					c0.084-3.492,2.841-6.308,6.162-6.299c3.321,0.012,5.937,2.845,5.853,6.333l-10.551,435.57l575.866-12.14
					c3.112-0.066,5.564,2.616,5.482,5.993C2898.737,1380.805,2896.153,1383.591,2893.04,1383.66z"/>
				<path style="fill:#D8DEE8;" d="M2849.495,1317.231l-470.782,8.453c-3.3,0.06-5.9-2.706-5.816-6.185l8.385-346.166
					c0.084-3.479,2.82-6.289,6.118-6.283c3.296,0.007,5.895,2.824,5.81,6.299l-8.228,339.65l464.809-8.027
					c3.129-0.054,5.592,2.643,5.51,6.029S2852.624,1317.173,2849.495,1317.231z"/>
				<path style="fill:#D8DEE8;" d="M3072.239,2484.759c-3.044,0.26-5.445-2.233-5.364-5.573l3.746-154.625l-73.876-77.435
					c-1.016-1.064-1.565-2.563-1.526-4.177l10.293-424.913c0.081-3.357,2.633-6.188,5.703-6.329
					c3.069-0.142,5.486,2.457,5.405,5.809l-10.226,422.133l73.796,77.426c1.004,1.054,1.549,2.544,1.51,4.15l-3.804,157.027
					C3077.815,2481.592,3075.285,2484.5,3072.239,2484.759z"/>
				<path style="fill:#D8DEE8;" d="M1893.652,1379.594c-1.609,0.032-3.205-0.566-4.403-1.802l-152.889-157.801l-564.021,6.608
					c-3.754,0.044-6.717-2.923-6.627-6.634l4.391-181.268c0.09-3.709,3.198-6.717,6.951-6.724c3.75-0.007,6.714,2.987,6.624,6.696
					l-4.225,174.432l559.872-6.172c1.7-0.019,3.307,0.651,4.475,1.859l154.565,159.689c2.395,2.474,2.296,6.559-0.221,9.132
					C1896.884,1378.898,1895.261,1379.561,1893.652,1379.594z"/>
				<path style="fill:#D8DEE8;" d="M1970.697,1300.858c-1.597,0.025-3.178-0.576-4.365-1.813l-151.623-157.821l-559.312,4.228
					c-3.721,0.027-6.661-2.94-6.571-6.636l3.725-153.764c0.089-3.696,3.173-6.682,6.893-6.678c3.719,0.003,6.656,2.994,6.566,6.687
					l-3.56,146.978l555.199-3.81c1.687-0.011,3.28,0.662,4.44,1.871l153.282,159.708c2.375,2.474,2.277,6.545-0.22,9.095
					C1973.904,1300.179,1972.293,1300.831,1970.697,1300.858z"/>
				<path style="fill:#D8DEE8;" d="M1961.248,1132.608c-1.598,0.009-3.182-0.608-4.372-1.855l-64.453-67.652l-554.663,1.881
					c-3.689,0.014-6.602-2.956-6.513-6.633l2.096-86.55c0.089-3.68,3.147-6.651,6.835-6.646c3.687,0.006,6.597,2.987,6.508,6.666
					l-1.934,79.834l550.59-1.488c1.67-0.003,3.251,0.674,4.402,1.882l66.185,69.54c2.377,2.498,2.278,6.569-0.221,9.102
					C1964.459,1131.956,1962.848,1132.596,1961.248,1132.608z"/>
				<path style="fill:#D8DEE8;" d="M2192.644,1421.143c-1.558,0.036-3.101-0.55-4.261-1.764l-122.565-128.336
					c-1.131-1.182-1.742-2.797-1.7-4.497l5.427-224.047c0.041-1.7,0.73-3.328,1.919-4.531l94.446-95.823
					c2.447-2.482,6.311-2.474,8.636,0.019c2.324,2.491,2.227,6.52-0.218,9.001l-92.509,93.94l-5.295,218.599l120.686,126.494
					c2.317,2.428,2.219,6.447-0.218,8.984C2195.774,1420.449,2194.202,1421.105,2192.644,1421.143z"/>
				<path style="fill:#D8DEE8;" d="M1003.453,1418.035c-1.767,0.039-3.519-0.583-4.836-1.877c-2.634-2.588-2.53-6.872,0.232-9.574
					l126.504-123.662c1.31-1.279,3.059-2.015,4.868-2.041l530.452-7.686c3.562-0.051,6.376,2.832,6.289,6.447
					c-0.088,3.612-3.043,6.583-6.606,6.636l-527.638,8.012l-124.334,121.66C1007.003,1417.299,1005.22,1417.999,1003.453,1418.035z"
					/>
				<path style="fill:#D8DEE8;" d="M1897.221,972.625l-490.707-0.72c-3.663-0.003-6.556-2.975-6.467-6.644
					c0.089-3.667,3.126-6.627,6.789-6.618l488.092,1.053l119.886-119.889c2.489-2.486,6.417-2.454,8.781,0.077
					c2.362,2.526,2.264,6.588-0.22,9.076l-121.661,121.777C1900.505,971.947,1898.891,972.625,1897.221,972.625z"/>
				<path style="fill:#D8DEE8;" d="M2754.518,1245.021l-231.905,3.202c-1.56,0.02-3.035-0.62-4.111-1.773l-68.965-74.252
					c-1.083-1.166-1.669-2.752-1.629-4.416l3.645-150.462c0.084-3.465,2.801-6.271,6.073-6.271c3.27-0.004,5.849,2.796,5.765,6.262
					l-3.58,147.766l65.537,70.628l229.468-3.006c3.162-0.042,5.652,2.679,5.569,6.085
					C2760.303,1242.188,2757.679,1244.977,2754.518,1245.021z"/>
				<path style="fill:#D8DEE8;" d="M1912.657,1372.757c-0.259,10.692-8.905,19.536-19.32,19.758
					c-10.427,0.22-18.677-8.288-18.418-19.002c0.259-10.713,8.93-19.558,19.357-19.757
					C1904.69,1353.557,1912.916,1362.065,1912.657,1372.757z"/>
				<path style="fill:#D8DEE8;" d="M1977.4,1281.462c-0.258,10.658-8.846,19.43-19.19,19.6c-10.356,0.165-18.55-8.353-18.292-19.029
					c0.259-10.679,8.872-19.453,19.227-19.6C1969.489,1262.286,1977.658,1270.805,1977.4,1281.462z"/>
				<path style="fill:#D8DEE8;" d="M1981.165,1126.036c-0.258,10.656-8.844,19.36-19.186,19.44
					c-10.354,0.081-18.546-8.507-18.288-19.184c0.259-10.679,8.87-19.382,19.223-19.442
					C1973.256,1106.788,1981.423,1115.38,1981.165,1126.036z"/>
				<path style="fill:#D8DEE8;" d="M1676.621,1279.498c-0.262,10.828-9.129,19.743-19.81,19.913
					c-10.696,0.17-19.163-8.489-18.9-19.342c0.263-10.851,9.156-19.766,19.851-19.913
					C1668.443,1260.009,1676.884,1268.667,1676.621,1279.498z"/>
				<path style="fill:#D8DEE8;" d="M1024.308,1410.832c-0.271,11.203-9.75,20.488-21.185,20.74
					c-11.448,0.253-20.518-8.643-20.246-19.869c0.272-11.225,9.782-20.511,21.229-20.741
					C1015.541,1390.733,1024.58,1399.63,1024.308,1410.832z"/>
				<path style="fill:#D8DEE8;" d="M1197.225,1038.644c-0.269,11.107-9.585,20.139-20.824,20.176
					c-11.25,0.032-20.163-8.963-19.894-20.095c0.27-11.13,9.62-20.162,20.869-20.174
					C1188.615,1018.541,1197.494,1027.536,1197.225,1038.644z"/>
				<path style="fill:#D8DEE8;" d="M1279.933,965.045c-0.268,11.06-9.51,20.021-20.654,20.014
					c-11.155-0.012-19.99-9.004-19.722-20.087c0.268-11.085,9.539-20.045,20.693-20.014
					C1271.394,944.989,1280.201,953.983,1279.933,965.045z"/>
				<path style="fill:#D8DEE8;" d="M1360.175,965.19c-0.267,11.016-9.432,19.938-20.484,19.927
					c-11.061-0.007-19.823-8.961-19.556-20.001c0.267-11.038,9.462-19.96,20.523-19.928
					C1351.71,945.22,1360.442,954.174,1360.175,965.19z"/>
				<path style="fill:#D8DEE8;" d="M1426.534,965.31c-0.266,10.976-9.368,19.869-20.343,19.859
					c-10.985-0.007-19.684-8.932-19.417-19.932c0.266-10.999,9.396-19.891,20.381-19.86
					C1418.129,945.407,1426.8,954.331,1426.534,965.31z"/>
				<path style="fill:#D8DEE8;" d="M2037.705,844.541c-0.257,10.629-8.794,19.182-19.077,19.107
					c-10.297-0.077-18.442-8.771-18.184-19.419c0.258-10.651,8.821-19.204,19.117-19.108
					C2029.844,825.221,2037.963,833.913,2037.705,844.541z"/>
				<path style="fill:#D8DEE8;" d="M1066.55,1086.148c-0.271,11.181-9.714,20.299-21.103,20.359
					c-11.404,0.063-20.437-8.971-20.166-20.177c0.271-11.207,9.745-20.322,21.148-20.361
					C1057.817,1065.932,1066.821,1074.965,1066.55,1086.148z"/>
				<path style="fill:#D8DEE8;" d="M996.358,1140.636c-0.272,11.222-9.782,20.395-21.253,20.492
					c-11.487,0.095-20.585-8.946-20.312-20.191c0.272-11.246,9.811-20.42,21.298-20.49
					C987.56,1120.376,996.63,1129.414,996.358,1140.636z"/>
				<path style="fill:#D8DEE8;" d="M925.997,1181.92c-0.273,11.262-9.85,20.487-21.404,20.608
					c-11.568,0.117-20.732-8.932-20.459-20.218c0.273-11.288,9.881-20.513,21.448-20.609
					C917.135,1161.605,926.269,1170.659,925.997,1181.92z"/>
				<path style="fill:#D8DEE8;" d="M869.876,1482.191c-0.273,11.291-9.903,20.684-21.518,20.982
					c-11.63,0.297-20.845-8.633-20.571-19.948c0.274-11.313,9.933-20.707,21.562-20.98
					C860.964,1461.972,870.149,1470.905,869.876,1482.191z"/>
				<path style="fill:#D8DEE8;" d="M868.225,1550.332c-0.273,11.291-9.903,20.715-21.52,21.055
					c-11.63,0.337-20.846-8.56-20.572-19.875c0.274-11.315,9.934-20.739,21.564-21.053
					C859.313,1530.146,868.499,1539.044,868.225,1550.332z"/>
				<path style="fill:#D8DEE8;" d="M827.993,1619.69c-0.274,11.311-9.94,20.789-21.603,21.168
					c-11.678,0.379-20.933-8.503-20.658-19.839s9.974-20.816,21.652-21.171C819.045,1599.494,828.267,1608.376,827.993,1619.69z"/>
				<path style="fill:#D8DEE8;" d="M826.339,1687.962c-0.274,11.311-9.941,20.823-21.605,21.243
					c-11.679,0.421-20.935-8.429-20.66-19.765s9.975-20.849,21.653-21.242C817.391,1667.801,826.613,1676.65,826.339,1687.962z"/>
				<path style="fill:#D8DEE8;" d="M1970.861,1808.57c-0.258,10.652-8.845,19.662-19.188,20.124
					c-10.357,0.461-18.553-7.816-18.294-18.49s8.873-19.684,19.229-20.126C1962.95,1789.637,1971.119,1797.916,1970.861,1808.57z"/>
				<path style="fill:#D8DEE8;" d="M1267.901,2015.825c-0.268,11.053-9.509,20.499-20.651,21.1
					c-11.155,0.599-19.989-7.893-19.721-18.97c0.268-11.075,9.537-20.522,20.692-21.102
					C1259.362,1996.278,1268.168,2004.771,1267.901,2015.825z"/>
				<path style="fill:#D8DEE8;" d="M857.094,1720.943c11.6-0.424,20.777,8.376,20.504,19.657
					c-0.273,11.284-9.893,20.793-21.494,21.242c-11.618,0.449-20.824-8.35-20.55-19.658
					C835.827,1730.879,845.477,1721.368,857.094,1720.943z"/>
				<path style="fill:#D8DEE8;" d="M926.913,1718.382c11.518-0.422,20.629,8.348,20.357,19.589
					c-0.272,11.243-9.825,20.716-21.344,21.165c-11.534,0.447-20.674-8.323-20.401-19.589
					C905.797,1728.28,915.379,1718.805,926.913,1718.382z"/>
				<path style="fill:#D8DEE8;" d="M996.237,1715.84c11.439-0.421,20.481,8.32,20.21,19.523
					c-0.271,11.203-9.754,20.642-21.194,21.086c-11.453,0.444-20.526-8.296-20.254-19.522
					C975.271,1725.701,984.785,1716.259,996.237,1715.84z"/>
				<path style="fill:#D8DEE8;" d="M1065.075,1713.313c11.357-0.415,20.336,8.298,20.066,19.459
					c-0.27,11.164-9.689,20.568-21.046,21.01c-11.372,0.441-20.382-8.27-20.111-19.456
					C1044.254,1723.139,1053.703,1713.733,1065.075,1713.313z"/>
				<path style="fill:#D8DEE8;" d="M1046.118,2212.827c11.374-0.708,20.364,7.77,20.094,18.937
					c-0.271,11.166-9.699,20.81-21.074,21.543c-11.387,0.734-20.409-7.743-20.137-18.935
					C1025.271,2223.184,1034.731,2213.535,1046.118,2212.827z"/>
				<path style="fill:#D8DEE8;" d="M1114.561,2208.564c11.294-0.703,20.22,7.748,19.95,18.876
					c-0.27,11.126-9.633,20.736-20.927,21.463c-11.307,0.729-20.264-7.721-19.994-18.871
					C1093.86,2218.88,1103.255,2209.268,1114.561,2208.564z"/>
				<path style="fill:#D8DEE8;" d="M1182.524,2204.332c11.216-0.7,20.078,7.723,19.81,18.812
					c-0.269,11.089-9.567,20.661-20.783,21.385c-11.228,0.723-20.121-7.699-19.852-18.811
					C1161.968,2214.607,1171.297,2205.029,1182.524,2204.332z"/>
				<path style="fill:#D8DEE8;" d="M1250.015,2200.125c11.134-0.692,19.937,7.705,19.669,18.753
					c-0.268,11.051-9.505,20.588-20.639,21.305c-11.152,0.72-19.983-7.676-19.715-18.75
					C1229.598,2210.361,1238.863,2200.823,1250.015,2200.125z"/>
				<path style="fill:#D8DEE8;" d="M922.356,2193.418c11.517-0.702,20.624,7.841,20.352,19.078
					c-0.272,11.238-9.821,20.937-21.339,21.661c-11.535,0.725-20.672-7.813-20.399-19.075
					C901.242,2203.82,910.821,2194.12,922.356,2193.418z"/>
				<path style="fill:#D8DEE8;" d="M852.214,2211.297c11.6-0.713,20.773,7.849,20.5,19.127c-0.273,11.28-9.89,21.02-21.49,21.757
					c-11.616,0.741-20.821-7.822-20.547-19.124C830.951,2221.755,840.599,2212.014,852.214,2211.297z"/>
				<path style="fill:#D8DEE8;" d="M783.336,2229.195c11.684-0.727,20.921,7.857,20.647,19.176
					c-0.274,11.316-9.956,21.099-21.64,21.851c-11.697,0.753-20.965-7.831-20.691-19.173
					C761.926,2239.71,771.639,2229.924,783.336,2229.195z"/>
				<path style="fill:#D8DEE8;" d="M2658.739,1877.516c9.57-0.47,17.121,7.454,16.873,17.701
					c-0.248,10.245-8.202,18.949-17.772,19.44c-9.584,0.49-17.157-7.433-16.908-17.699
					C2641.179,1886.691,2649.155,1877.988,2658.739,1877.516z"/>
				<path style="fill:#D8DEE8;" d="M2716.35,1874.686c9.509-0.467,17.01,7.433,16.763,17.647
					c-0.247,10.213-8.15,18.887-17.66,19.374c-9.521,0.488-17.045-7.413-16.797-17.645
					C2698.904,1883.827,2706.829,1875.153,2716.35,1874.686z"/>
				<path style="fill:#D8DEE8;" d="M2773.591,1871.872c9.448-0.463,16.9,7.411,16.654,17.594
					c-0.247,10.18-8.099,18.824-17.547,19.309c-9.46,0.485-16.934-7.392-16.687-17.593
					C2756.257,1880.984,2764.131,1872.335,2773.591,1871.872z"/>
				<path style="fill:#D8DEE8;" d="M2830.464,1869.078c9.387-0.462,16.793,7.391,16.547,17.538
					c-0.246,10.15-8.051,18.763-17.438,19.245c-9.398,0.48-16.824-7.372-16.578-17.538
					C2813.242,1878.156,2821.067,1869.541,2830.464,1869.078z"/>
				<path style="fill:#D8DEE8;" d="M2886.975,1866.301c9.33-0.46,16.686,7.37,16.441,17.485
					c-0.245,10.116-7.999,18.703-17.329,19.179c-9.339,0.48-16.717-7.348-16.472-17.483
					C2869.861,1875.347,2877.636,1866.759,2886.975,1866.301z"/>
				<path style="fill:#D8DEE8;" d="M3011.508,1799.572c9.197-0.42,16.449,7.383,16.205,17.427
					c-0.243,10.042-7.89,18.543-17.087,18.982c-9.208,0.44-16.482-7.361-16.239-17.426
					C2994.631,1808.491,3002.3,1799.991,3011.508,1799.572z"/>
				<path style="fill:#D8DEE8;" d="M3026.429,1641.389c9.184-0.336,16.425,7.528,16.182,17.566
					c-0.243,10.039-7.879,18.465-17.064,18.822c-9.194,0.356-16.458-7.508-16.214-17.566
					C3009.576,1650.153,3017.236,1641.725,3026.429,1641.389z"/>
				<path style="fill:#D8DEE8;" d="M3011.244,1581.298c9.202-0.306,16.456,7.593,16.213,17.641
					c-0.243,10.046-7.892,18.453-17.095,18.779c-9.211,0.326-16.487-7.573-16.243-17.639
					C2994.363,1590.013,3002.034,1581.604,3011.244,1581.298z"/>
				<path style="fill:#D8DEE8;" d="M3052.648,1700.923c9.156-0.369,16.374,7.459,16.132,17.481
					c-0.243,10.023-7.855,18.461-17.011,18.847c-9.167,0.388-16.406-7.439-16.162-17.479
					C3035.849,1709.729,3043.481,1701.289,3052.648,1700.923z"/>
				<path style="fill:#D8DEE8;" d="M2979.318,1521.59c9.234-0.274,16.517,7.662,16.273,17.731
					c-0.244,10.066-7.923,18.465-17.157,18.758c-9.246,0.296-16.548-7.642-16.304-17.73
					C2962.374,1530.263,2970.073,1521.865,2979.318,1521.59z"/>
				<path style="fill:#D8DEE8;" d="M2903.392,1420.831c9.317-0.221,16.663,7.795,16.418,17.907
					c-0.245,10.113-7.988,18.506-17.306,18.749c-9.327,0.241-16.695-7.776-16.45-17.905
					C2886.299,1429.45,2894.065,1421.057,2903.392,1420.831z"/>
				<path style="fill:#D8DEE8;" d="M2807.394,1416.222c9.419-0.223,16.848,7.841,16.602,18.008
					c-0.246,10.166-8.074,18.604-17.494,18.845c-9.429,0.241-16.88-7.823-16.633-18.008
					C2790.115,1424.878,2797.966,1416.442,2807.394,1416.222z"/>
				<path style="fill:#D8DEE8;" d="M2893.631,1359.208c9.329-0.19,16.683,7.858,16.438,17.979
					c-0.245,10.119-7.997,18.491-17.326,18.699c-9.338,0.21-16.716-7.838-16.47-17.976
					C2876.518,1367.772,2884.293,1359.4,2893.631,1359.208z"/>
				<path style="fill:#D8DEE8;" d="M2843.717,1292.822c9.381-0.156,16.779,7.943,16.533,18.093
					c-0.246,10.149-8.043,18.516-17.424,18.69c-9.392,0.176-16.814-7.924-16.568-18.091S2834.325,1292.978,2843.717,1292.822z"/>
				<path style="fill:#D8DEE8;" d="M2755.112,1220.373c9.476-0.116,16.953,8.056,16.706,18.255
					c-0.247,10.202-8.125,18.582-17.601,18.718c-9.487,0.137-16.985-8.035-16.737-18.255
					C2737.727,1228.871,2745.626,1220.49,2755.112,1220.373z"/>
				<path style="fill:#D8DEE8;" d="M2457.929,998.515c9.798,0.001,17.532,8.411,17.28,18.785
					c-0.251,10.372-8.393,18.799-18.191,18.817c-9.813,0.02-17.569-8.39-17.317-18.785
					C2439.953,1006.939,2448.118,998.513,2457.929,998.515z"/>
				<path style="fill:#D8DEE8;" d="M2387.704,954.466c9.878,0.026,17.669,8.489,17.417,18.903
					c-0.252,10.414-8.453,18.853-18.331,18.849c-9.887-0.003-17.705-8.466-17.452-18.901
					C2369.59,962.882,2377.817,954.441,2387.704,954.466z"/>
				<path style="fill:#D8DEE8;" d="M2322.474,929.044c9.946,0.039,17.797,8.542,17.544,18.993
					c-0.253,10.452-8.515,18.911-18.462,18.893c-9.958-0.018-17.836-8.522-17.583-18.995
					C2304.228,937.462,2312.517,929.003,2322.474,929.044z"/>
				<path style="fill:#D8DEE8;" d="M2269.015,897.163c10.007,0.057,17.905,8.602,17.651,19.085
					c-0.254,10.481-8.563,18.951-18.571,18.917c-10.018-0.036-17.941-8.58-17.687-19.085
					C2250.662,905.578,2258.997,897.108,2269.015,897.163z"/>
				<path style="fill:#D8DEE8;" d="M2168.546,947.548c10.116,0.028,18.102,8.599,17.847,19.137
					c-0.255,10.54-8.656,19.078-18.772,19.072c-10.128-0.008-18.14-8.576-17.884-19.138
					C2149.992,956.057,2158.419,947.519,2168.546,947.548z"/>
				<path style="fill:#D8DEE8;" d="M2170.397,871.133c10.115,0.072,18.1,8.673,17.845,19.214
					c-0.255,10.539-8.655,19.044-18.771,18.995c-10.127-0.052-18.138-8.654-17.882-19.214
					C2151.845,879.567,2160.271,871.061,2170.397,871.133z"/>
				<path style="fill:#D8DEE8;" d="M2193.337,1392.543c10.082-0.217,18.041,8.136,17.786,18.657
					c-0.255,10.519-8.627,19.24-18.709,19.474c-10.096,0.239-18.081-8.114-17.826-18.653
					C2174.843,1401.479,2183.242,1392.759,2193.337,1392.543z"/>
				<path style="fill:#D8DEE8;" d="M2595.487,2097.718c9.637-0.589,17.238,7.268,16.989,17.547
					c-0.249,10.278-8.254,19.104-17.892,19.715c-9.647,0.611-17.273-7.241-17.023-17.541
					C2577.811,2107.139,2585.84,2098.311,2595.487,2097.718z"/>
				<path style="fill:#D8DEE8;" d="M2567.701,2043.522c9.666-0.563,17.291,7.331,17.042,17.626
					c-0.25,10.296-8.28,19.113-17.946,19.695c-9.679,0.583-17.329-7.307-17.08-17.622
					C2549.967,2052.905,2558.023,2044.085,2567.701,2043.522z"/>
				<path style="fill:#D8DEE8;" d="M2539.823,1989.149c9.698-0.533,17.348,7.393,17.098,17.708
					c-0.25,10.314-8.305,19.121-18.004,19.675c-9.709,0.555-17.384-7.373-17.133-17.706
					C2522.034,1998.492,2530.114,1989.684,2539.823,1989.149z"/>
				<path style="fill:#D8DEE8;" d="M2511.855,1934.598c9.727-0.505,17.405,7.459,17.154,17.789s-8.333,19.13-18.061,19.655
					c-9.74,0.526-17.441-7.437-17.19-17.787C2494.009,1943.904,2502.115,1935.104,2511.855,1934.598z"/>
				<path style="fill:#D8DEE8;" d="M1832.873,2241.387c10.47-0.694,18.742,7.429,18.482,18.143
					c-0.26,10.715-8.952,19.981-19.423,20.698c-10.486,0.719-18.781-7.403-18.521-18.139S1822.387,2242.083,1832.873,2241.387z"/>
				<path style="fill:#D8DEE8;" d="M2589.395,2349.229c9.64-0.725,17.244,7.021,16.995,17.3
					c-0.249,10.278-8.257,19.216-17.898,19.963c-9.651,0.745-17.279-7-17.029-17.298
					C2571.712,2358.895,2579.744,2349.956,2589.395,2349.229z"/>
				<path style="fill:#D8DEE8;" d="M2591.078,2519.515c9.635-0.818,17.237,6.854,16.988,17.13
					c-0.249,10.276-8.255,19.281-17.89,20.119c-9.646,0.838-17.273-6.831-17.024-17.125
					C2573.401,2529.343,2581.433,2520.333,2591.078,2519.515z"/>
				<path style="fill:#D8DEE8;" d="M1766.746,2180.918c10.546-0.668,18.878,7.513,18.617,18.268
					c-0.26,10.752-9.015,20.026-19.562,20.712c-10.56,0.686-18.918-7.491-18.657-18.267S1756.187,2181.582,1766.746,2180.918z"/>
				<path style="fill:#D8DEE8;" d="M1715.65,2184.134c10.606-0.667,18.983,7.532,18.721,18.317
					c-0.261,10.782-9.062,20.081-19.668,20.771c-10.618,0.69-19.021-7.506-18.759-18.313
					C1696.207,2194.104,1705.033,2184.802,1715.65,2184.134z"/>
				<path style="fill:#D8DEE8;" d="M1662.696,2252.694c10.664-0.709,19.088,7.484,18.826,18.296
					c-0.262,10.812-9.111,20.167-19.775,20.9c-10.677,0.732-19.128-7.459-18.865-18.293S1652.019,2253.403,1662.696,2252.694z"/>
				<path style="fill:#D8DEE8;" d="M1437.652,2412.814c10.916-0.807,19.542,7.405,19.277,18.344
					c-0.265,10.939-9.321,20.479-20.237,21.312c-10.931,0.831-19.587-7.38-19.322-18.342
					C1417.635,2423.167,1426.721,2413.623,1437.652,2412.814z"/>
				<path style="fill:#D8DEE8;" d="M1406.071,2355.674c10.956-0.778,19.612,7.476,19.346,18.435
					c-0.266,10.958-9.351,20.49-20.308,21.289c-10.967,0.801-19.653-7.449-19.387-18.431
					C1385.988,2365.986,1395.105,2356.452,1406.071,2355.674z"/>
				<path style="fill:#D8DEE8;" d="M1374.382,2298.337c10.992-0.748,19.679,7.55,19.413,18.524
					c-0.266,10.977-9.384,20.5-20.377,21.267c-11.004,0.77-19.718-7.524-19.452-18.523
					C1354.233,2308.603,1363.378,2299.083,1374.382,2298.337z"/>
				<path style="fill:#D8DEE8;" d="M1342.584,2240.796c11.029-0.713,19.745,7.625,19.479,18.62
					c-0.266,10.996-9.415,20.507-20.444,21.243c-11.043,0.738-19.786-7.597-19.519-18.617
					C1322.366,2251.024,1331.542,2241.511,1342.584,2240.796z"/>
				<path style="fill:#D8DEE8;" d="M2613.969,2771.173c9.608-0.95,17.187,6.597,16.939,16.855
					c-0.249,10.261-8.231,19.362-17.84,20.333c-9.619,0.971-17.222-6.573-16.973-16.852
					C2596.344,2781.229,2604.35,2772.124,2613.969,2771.173z"/>
				<path style="fill:#D8DEE8;" d="M2717.794,2760.901c9.496-0.938,16.989,6.568,16.742,16.77
					c-0.247,10.2-8.141,19.243-17.637,20.204c-9.507,0.96-17.021-6.544-16.773-16.764
					C2700.373,2770.891,2708.289,2761.844,2717.794,2760.901z"/>
				<path style="fill:#D8DEE8;" d="M2820.425,2750.75c9.388-0.931,16.791,6.54,16.545,16.682
					c-0.246,10.139-8.047,19.127-17.435,20.077c-9.398,0.95-16.824-6.518-16.578-16.678
					C2803.203,2760.671,2811.027,2751.679,2820.425,2750.75z"/>
				<path style="fill:#D8DEE8;" d="M2894.404,2719.086c9.311-0.91,16.651,6.543,16.406,16.641
					c-0.245,10.099-7.982,19.037-17.293,19.964c-9.319,0.93-16.683-6.521-16.438-16.639
					C2877.324,2728.934,2885.086,2719.994,2894.404,2719.086z"/>
				<path style="fill:#D8DEE8;" d="M2951.474,2671.045c9.249-0.877,16.543,6.569,16.3,16.636
					c-0.244,10.068-7.934,18.957-17.184,19.857c-9.26,0.9-16.575-6.546-16.331-16.633
					C2934.504,2680.819,2942.214,2671.928,2951.474,2671.045z"/>
				<path style="fill:#D8DEE8;" d="M3008.181,2623.313c9.191-0.851,16.439,6.593,16.196,16.629
					c-0.243,10.034-7.885,18.876-17.077,19.747c-9.2,0.872-16.468-6.572-16.225-16.626
					C2991.319,2633.009,2998.982,2624.164,3008.181,2623.313z"/>
				<path style="fill:#D8DEE8;" d="M3048.411,2559.228c9.149-0.817,16.362,6.639,16.12,16.653
					c-0.242,10.012-7.85,18.805-16.999,19.642c-9.16,0.836-16.394-6.619-16.151-16.65
					C3031.624,2568.842,3039.252,2560.045,3048.411,2559.228z"/>
				<path style="fill:#D8DEE8;" d="M3072.824,2460.594c9.125-0.763,16.319,6.724,16.077,16.724
					c-0.242,10.002-7.829,18.742-16.955,19.525c-9.135,0.784-16.351-6.703-16.108-16.723
					C3056.08,2470.104,3063.689,2461.36,3072.824,2460.594z"/>
				<path style="fill:#D8DEE8;" d="M1863.414,1761.573l-670.828,27.389c-3.741,0.154-6.697-2.722-6.607-6.427
					c0.09-3.703,3.191-6.821,6.932-6.972l670.817-26.923c3.487-0.141,6.235,2.639,6.149,6.212
					C1869.79,1758.423,1866.901,1761.432,1863.414,1761.573z"/>
				<path style="fill:#D8DEE8;" d="M1213.033,1781.442c-0.269,11.089-9.562,20.453-20.772,20.92
					c-11.222,0.465-20.11-8.166-19.841-19.276c0.269-11.114,9.594-20.481,20.814-20.922
					C1204.445,1761.721,1213.302,1770.353,1213.033,1781.442z"/>
				<path style="fill:#D8DEE8;" d="M1882.476,1754.341c-0.259,10.704-8.927,19.734-19.372,20.166
					c-10.456,0.435-18.73-7.907-18.47-18.633c0.26-10.728,8.955-19.757,19.41-20.17
					C1874.488,1735.294,1882.735,1743.638,1882.476,1754.341z"/>
			</g>
		</g>
		<g>
			<linearGradient id="SVGID_1_" gradientUnits="userSpaceOnUse" x1="730.4379" y1="1895.526" x2="1234.7163" y2="1895.526">
				<stop  offset="0" style="stop-color:#FF9085"/>
				<stop  offset="1" style="stop-color:#FB6FBB"/>
			</linearGradient>
			<path style="fill:url(#SVGID_1_);" d="M730.438,808.564v2153.819c0,41.059,29.071,76.742,70.249,86.227l180.302,41.533
				c17.153,3.952,34.736,5.855,52.359,5.67c1.384-0.015,2.767-0.099,4.144-0.232l27.997-2.719l169.227-1809.876l-220.349-587.759
				l-204.208,25.434C764.577,726.338,730.438,763.981,730.438,808.564z"/>
			
				<linearGradient id="SVGID_00000161597117867956621230000004753735255035530625_" gradientUnits="userSpaceOnUse" x1="949.9874" y1="1895.2086" x2="2340.7214" y2="1895.2086">
				<stop  offset="0" style="stop-color:#FF9085"/>
				<stop  offset="1" style="stop-color:#FB6FBB"/>
			</linearGradient>
			<path style="fill:url(#SVGID_00000161597117867956621230000004753735255035530625_);" d="M949.987,772.429v2245.557
				c0,44.838,39.24,80.243,85.337,76.998l1231.577-125.68c41.607-2.929,73.82-36.53,73.82-76.999V824.946
				c0-41.318-33.534-75.312-76.084-77.127l-1231.576-52.517C987.783,693.372,949.987,728.461,949.987,772.429z"/>
			<g>
				<g>
					
						<linearGradient id="SVGID_00000048499521164141511970000003636707329678555539_" gradientUnits="userSpaceOnUse" x1="822.431" y1="1889.8464" x2="914.3144" y2="1889.8464">
						<stop  offset="0" style="stop-color:#311944"/>
						<stop  offset="1" style="stop-color:#893976"/>
					</linearGradient>
					<path style="fill:url(#SVGID_00000048499521164141511970000003636707329678555539_);" d="M856.585,2999.306V788.982
						c0-33.132,25.746-66.741,57.73-81.294l-36.591,4.558c-32.584,11.591-55.292,41.834-55.292,76.736v2210.324
						c0,23.815,10.608,45.617,27.864,60.731l51.95,11.967C874.743,3058.24,856.585,3030.488,856.585,2999.306z"/>
				</g>
			</g>
			<g>
				
					<linearGradient id="SVGID_00000098943940667380053660000017306592821274830223_" gradientUnits="userSpaceOnUse" x1="2111.7341" y1="1536.6415" x2="1496.3246" y2="1616.2208">
					<stop  offset="0" style="stop-color:#311944"/>
					<stop  offset="1" style="stop-color:#893976"/>
				</linearGradient>
				<path style="fill:url(#SVGID_00000098943940667380053660000017306592821274830223_);" d="M1139.573,968.141v1285.612
					c0,37.366,31.224,67.657,69.741,67.657l909.527-32.832c38.518,0,69.742-30.291,69.742-67.657V999.8
					c0-36.144-29.284-65.906-66.502-67.584l-909.526-31.66C1172.809,898.763,1139.573,929.541,1139.573,968.141z"/>
				
					<linearGradient id="SVGID_00000137843927193758044350000007628634028937968062_" gradientUnits="userSpaceOnUse" x1="975.0549" y1="2349.896" x2="2183.7761" y2="993.772">
					<stop  offset="0" style="stop-color:#311944"/>
					<stop  offset="1" style="stop-color:#893976"/>
				</linearGradient>
				<path style="fill:url(#SVGID_00000137843927193758044350000007628634028937968062_);" d="M2157.052,2220.922V999.8
					c0-36.145-29.284-65.906-66.502-67.585l-892.282-30.881c-33.113,5.113-58.695,32.944-58.695,66.806v1285.613
					c0,37.366,31.224,67.657,69.741,67.657l877.996-32.832C2125.827,2288.579,2157.052,2258.287,2157.052,2220.922z"/>
			</g>
			
				<linearGradient id="SVGID_00000135684015282715587250000002432848551551346822_" gradientUnits="userSpaceOnUse" x1="1717.0852" y1="781.7029" x2="1639.4146" y2="913.5079">
				<stop  offset="0" style="stop-color:#311944"/>
				<stop  offset="1" style="stop-color:#893976"/>
			</linearGradient>
			
				<ellipse style="fill:url(#SVGID_00000135684015282715587250000002432848551551346822_);" cx="1684.952" cy="836.233" rx="20.873" ry="32.832"/>
			<g>
				<path style="fill:#FFFFFF;" d="M1966.564,1553.159l-558.659,9.288c-42.519,0.707-77.113,33.77-77.113,73.847v351.824
					c0,40.077,34.594,71.175,77.113,69.468l558.659-22.433c40.131-1.611,72.548-34.312,72.548-73.044v-340.025
					C2039.111,1583.352,2006.695,1552.492,1966.564,1553.159z"/>
				<path style="fill:#FFFFFF;" d="M1958.479,1518.099c-16.92,0.252-30.658-12.807-30.658-29.168v-77.001
					c0-77.249-65.342-139.906-146.231-139.672l-181.995,0.525c-82.972,0.24-150.963,64.749-150.963,143.801v78.8
					c0,16.743-14.406,30.531-32.204,30.797c-17.827,0.265-32.302-13.134-32.302-29.928v-79.041
					c0-112.829,97.208-204.624,215.469-204.624h181.995c114.908,0,207.455,89.159,207.455,198.749v76.771
					C1989.046,1504.419,1975.371,1517.847,1958.479,1518.099z"/>
				
					<linearGradient id="SVGID_00000065764121670997186050000000826250905116449969_" gradientUnits="userSpaceOnUse" x1="1632.868" y1="1814.2854" x2="1777.6187" y2="1814.2854">
					<stop  offset="0" style="stop-color:#311944"/>
					<stop  offset="1" style="stop-color:#893976"/>
				</linearGradient>
				<path style="fill:url(#SVGID_00000065764121670997186050000000826250905116449969_);" d="M1777.619,1748.142
					c0-39.098-34.131-69.795-75.625-66.975c-36.693,2.494-67.036,31.878-69.017,66.962c-1.537,27.225,13.425,50.759,36.168,62.661
					c9.674,5.063,14.48,15.732,12.599,26.286l-15.952,89.512c-2.031,11.399,7.132,21.414,19.188,20.983l40.993-1.468
					c11.994-0.43,21.092-11.057,19.077-22.271l-15.941-88.681c-1.901-10.577,3.597-21.086,13.297-26.885
					C1763.501,1795.654,1777.619,1773.287,1777.619,1748.142z"/>
			</g>
			<g>
				<path style="fill:#FFFFFF;" d="M1480.391,2615.845c-5.572,0.339-10.092-3.739-10.092-9.108v-25.273
					c0-25.354-21.444-44.763-47.868-43.262l-58.957,3.348c-26.654,1.514-48.392,23.539-48.392,49.094v25.473
					c0,5.413-4.594,10.08-10.264,10.426c-5.673,0.346-10.274-3.767-10.274-9.185v-25.5c0-36.401,30.982-67.744,68.93-69.862
					l58.957-3.29c37.577-2.097,68.042,25.524,68.042,61.564v25.247C1490.474,2610.882,1485.961,2615.506,1480.391,2615.845z"/>
				<path style="fill:#FFFFFF;" d="M1483.056,2627.244l-180.951,11.132c-13.512,0.831-24.48,11.969-24.48,24.878v113.314
					c0,12.907,10.967,22.608,24.48,21.667l180.951-12.596c13.247-0.922,23.974-12.011,23.974-24.769v-112
					C1507.03,2636.111,1496.304,2626.429,1483.056,2627.244z M1404.968,2717.012c-3.149,2.006-4.933,5.497-4.316,8.922l5.174,28.741
					c0.654,3.636-2.3,7.198-6.192,7.463l-13.28,0.905c-3.899,0.266-6.861-2.898-6.204-6.627l5.157-29.306
					c0.608-3.456-0.946-6.874-4.074-8.408c-7.346-3.602-12.172-11.073-11.676-19.939c0.639-11.428,10.435-21.376,22.304-22.668
					c13.457-1.466,24.553,8.106,24.553,20.871C1416.415,2705.174,1411.822,2712.646,1404.968,2717.012z"/>
			</g>
			<g>
				
					<linearGradient id="SVGID_00000142861598714296941540000016968350074819166852_" gradientUnits="userSpaceOnUse" x1="1151.2646" y1="2664.9426" x2="1628.9292" y2="2664.9426">
					<stop  offset="0" style="stop-color:#FF9085"/>
					<stop  offset="1" style="stop-color:#FB6FBB"/>
				</linearGradient>
				<path style="opacity:0.6;fill:url(#SVGID_00000142861598714296941540000016968350074819166852_);" d="M1628.929,2649.858
					c0,124.979-104.927,234.142-235.932,243.94c-132.775,9.931-241.732-85.726-241.732-213.777s108.958-237.468,241.732-244.306
					C1524.002,2428.968,1628.929,2524.879,1628.929,2649.858z"/>
				
					<linearGradient id="SVGID_00000074404793611496959840000018225461080554076035_" gradientUnits="userSpaceOnUse" x1="1746.5997" y1="2628.2273" x2="2196.4473" y2="2628.2273">
					<stop  offset="0" style="stop-color:#FF9085"/>
					<stop  offset="1" style="stop-color:#FB6FBB"/>
				</linearGradient>
				<path style="opacity:0.6;fill:url(#SVGID_00000074404793611496959840000018225461080554076035_);" d="M2196.447,2614.021
					c0,121.329-98.872,227.08-222.273,236.309c-125.018,9.35-227.574-83.681-227.574-207.903
					c0-124.222,102.556-230.206,227.574-236.644C2097.575,2399.428,2196.447,2492.692,2196.447,2614.021z"/>
			</g>
			<g>
				<path style="fill:#FFFFFF;" d="M2047.98,2580.965c-4.648-2.147-6.43-7.749-3.98-12.508l11.525-22.384
					c11.548-22.428,3.12-48.969-18.82-59.208l-48.923-22.833c-22.104-10.317-49.636-0.407-61.341,22.137l-11.682,22.5
					c-2.484,4.784-8.321,6.897-13.038,4.718c-4.72-2.181-6.53-7.831-4.041-12.619l11.703-22.515
					c16.681-32.091,55.884-46.157,87.321-31.449l48.877,22.867c31.174,14.585,43.141,52.315,26.743,84.199l-11.504,22.369
					C2058.374,2580.994,2052.626,2583.111,2047.98,2580.965z"/>
				<path style="fill:#FFFFFF;" d="M2059.001,2591.811l-170.414,10.484c-12.722,0.782-23.047,11.57-23.047,24.095v109.946
					c0,12.524,10.325,21.958,23.047,21.072l170.414-11.863c12.479-0.869,22.584-11.611,22.584-23.994v-108.708
					C2081.585,2600.46,2071.48,2591.043,2059.001,2591.811z M1985.448,2678.791c-2.966,1.941-4.646,5.324-4.065,8.65l4.873,27.901
					c0.616,3.53-2.166,6.981-5.832,7.23l-12.507,0.852c-3.672,0.25-6.461-2.826-5.842-6.444l4.856-28.43
					c0.573-3.353-0.891-6.672-3.836-8.167c-6.918-3.509-11.463-10.768-10.996-19.372c0.602-11.089,9.826-20.724,21.004-21.957
					c12.674-1.397,23.124,7.912,23.124,20.3C1996.229,2667.324,1991.904,2674.567,1985.448,2678.791z"/>
			</g>
			<path style="opacity:0.3;fill:#FFFFFF;" d="M2264.637,747.82l-1029.778-43.913c0.285,11.917,1.113,24.026,2.636,36.324
				c27.679,223.465,242.554,259.16,325.274,508.042c75.798,228.056-76.649,282.24,13.011,482.799
				c84.018,187.94,240.92,191.891,335.033,429.155c41.295,104.108,20.459,425.653,55.297,535.345
				c29.803,93.842,85.62,165.617,194.088,281.241l106.704-7.51c41.606-2.928,73.82-36.53,73.82-76.999V824.946
				C2340.722,783.628,2307.188,749.634,2264.637,747.82z"/>
		</g>
		<g>
			
				<linearGradient id="SVGID_00000085235405439583374750000006901040352203066244_" gradientUnits="userSpaceOnUse" x1="2250.5051" y1="2624.1604" x2="2255.7278" y2="2624.1604">
				<stop  offset="0" style="stop-color:#311944"/>
				<stop  offset="1" style="stop-color:#893976"/>
			</linearGradient>
			<path style="fill:url(#SVGID_00000085235405439583374750000006901040352203066244_);" d="M2253.116,3141.396
				c1.442,0,2.611-1.169,2.611-2.612V2109.537c0-1.442-1.169-2.611-2.611-2.611c-1.442,0-2.611,1.169-2.611,2.611v1029.247
				C2250.505,3140.227,2251.675,3141.396,2253.116,3141.396z"/>
			
				<linearGradient id="SVGID_00000085242366725187587220000011060557503956911491_" gradientUnits="userSpaceOnUse" x1="2527.7959" y1="2578.856" x2="2533.0188" y2="2578.856">
				<stop  offset="0" style="stop-color:#311944"/>
				<stop  offset="1" style="stop-color:#893976"/>
			</linearGradient>
			<path style="fill:url(#SVGID_00000085242366725187587220000011060557503956911491_);" d="M2530.407,3076.74
				c1.442,0,2.612-1.169,2.612-2.611v-990.546c0-1.442-1.17-2.611-2.612-2.611c-1.442,0-2.611,1.169-2.611,2.611v990.546
				C2527.796,3075.571,2528.966,3076.74,2530.407,3076.74z"/>
			
				<linearGradient id="SVGID_00000083783819581205237600000006095878131783497895_" gradientUnits="userSpaceOnUse" x1="2798.2087" y1="2609.5762" x2="3174.1021" y2="2609.5762">
				<stop  offset="0" style="stop-color:#311944"/>
				<stop  offset="1" style="stop-color:#893976"/>
			</linearGradient>
			<path style="fill:url(#SVGID_00000083783819581205237600000006095878131783497895_);" d="M3171.491,3122.865
				c0.296,0,0.596-0.051,0.891-0.157c1.355-0.492,2.055-1.99,1.563-3.346l-370.67-1021.355c-0.491-1.356-1.99-2.054-3.345-1.564
				c-1.355,0.492-2.055,1.99-1.563,3.345l370.67,1021.355C3169.422,3122.206,3170.424,3122.865,3171.491,3122.865z"/>
			
				<linearGradient id="SVGID_00000090268662714753116130000008870759631087115942_" gradientUnits="userSpaceOnUse" x1="2562.5596" y1="2661.759" x2="2900.4602" y2="2661.759">
				<stop  offset="0" style="stop-color:#311944"/>
				<stop  offset="1" style="stop-color:#893976"/>
			</linearGradient>
			<path style="fill:url(#SVGID_00000090268662714753116130000008870759631087115942_);" d="M2897.847,3202.791
				c0.256,0,0.515-0.037,0.772-0.117c1.378-0.426,2.15-1.888,1.725-3.265l-332.677-1076.84c-0.425-1.379-1.892-2.15-3.266-1.725
				c-1.378,0.426-2.149,1.888-1.724,3.266l332.677,1076.84C2895.7,3202.071,2896.732,3202.791,2897.847,3202.791z"/>
			<polygon style="fill:#D8DEE8;" points="2527.357,2082.554 2249.194,2103.141 2249.194,2109.399 2567.094,2123.649 
				2804.7,2094.535 2804.7,2088.279 			"/>
			
				<linearGradient id="SVGID_00000048486174817088921110000008658084033209265564_" gradientUnits="userSpaceOnUse" x1="2249.1941" y1="2096.845" x2="2804.6997" y2="2096.845">
				<stop  offset="0" style="stop-color:#311944"/>
				<stop  offset="1" style="stop-color:#893976"/>
			</linearGradient>
			<polygon style="fill:url(#SVGID_00000048486174817088921110000008658084033209265564_);" points="2527.357,2076.297 
				2249.194,2103.141 2567.094,2117.393 2804.7,2088.279 			"/>
			
				<linearGradient id="SVGID_00000067956258587215732160000009626902938759746723_" gradientUnits="userSpaceOnUse" x1="2823.2649" y1="2932.4751" x2="3093.345" y2="2932.4751">
				<stop  offset="0" style="stop-color:#311944"/>
				<stop  offset="1" style="stop-color:#893976"/>
			</linearGradient>
			<path style="fill:url(#SVGID_00000067956258587215732160000009626902938759746723_);" d="M2825.875,2969.829
				c0.22,0,0.442-0.028,0.664-0.086l264.857-69.485c1.395-0.366,2.229-1.793,1.864-3.189c-0.366-1.396-1.795-2.227-3.188-1.863
				l-264.857,69.485c-1.395,0.366-2.229,1.793-1.864,3.189C2823.659,2969.053,2824.716,2969.829,2825.875,2969.829z"/>
			
				<linearGradient id="SVGID_00000103950978981535569040000008685501438652675209_" gradientUnits="userSpaceOnUse" x1="2748.2385" y1="2700.4475" x2="3013.3943" y2="2700.4475">
				<stop  offset="0" style="stop-color:#311944"/>
				<stop  offset="1" style="stop-color:#893976"/>
			</linearGradient>
			<path style="fill:url(#SVGID_00000103950978981535569040000008685501438652675209_);" d="M2750.847,2726.072
				c0.152,0,0.304-0.014,0.458-0.041l259.933-46.025c1.42-0.252,2.367-1.607,2.117-3.027c-0.252-1.42-1.614-2.364-3.026-2.116
				l-259.932,46.025c-1.42,0.252-2.367,1.607-2.117,3.027C2748.503,2725.181,2749.604,2726.072,2750.847,2726.072z"/>
			
				<linearGradient id="SVGID_00000142164407460414497160000006679876273358639489_" gradientUnits="userSpaceOnUse" x1="2670.2314" y1="2455.6477" x2="2927.0183" y2="2455.6477">
				<stop  offset="0" style="stop-color:#311944"/>
				<stop  offset="1" style="stop-color:#893976"/>
			</linearGradient>
			<path style="fill:url(#SVGID_00000142164407460414497160000006679876273358639489_);" d="M2672.84,2474.472
				c0.112,0,0.223-0.007,0.337-0.021l251.564-32.427c1.43-0.184,2.44-1.493,2.256-2.923c-0.186-1.431-1.5-2.438-2.923-2.256
				l-251.564,32.426c-1.43,0.184-2.44,1.493-2.256,2.924C2670.423,2473.512,2671.546,2474.472,2672.84,2474.472z"/>
			
				<linearGradient id="SVGID_00000054224846401581995910000007724853054014357132_" gradientUnits="userSpaceOnUse" x1="2620.2466" y1="2278.761" x2="2861.9915" y2="2278.761">
				<stop  offset="0" style="stop-color:#311944"/>
				<stop  offset="1" style="stop-color:#893976"/>
			</linearGradient>
			<path style="fill:url(#SVGID_00000054224846401581995910000007724853054014357132_);" d="M2622.854,2299.878
				c0.135,0,0.27-0.01,0.407-0.031l236.522-37.012c1.425-0.223,2.399-1.559,2.176-2.983c-0.222-1.425-1.567-2.396-2.983-2.176
				l-236.522,37.012c-1.425,0.223-2.399,1.559-2.176,2.983C2620.479,2298.958,2621.591,2299.878,2622.854,2299.878z"/>
		</g>
		<g>
			
				<linearGradient id="SVGID_00000147189608671490314040000005069813839404181645_" gradientUnits="userSpaceOnUse" x1="-2652.6572" y1="1939.6917" x2="-2635.0027" y2="2164.3857" gradientTransform="matrix(1 0 0 1 5019.6431 0)">
				<stop  offset="0" style="stop-color:#311944"/>
				<stop  offset="1" style="stop-color:#A03976"/>
			</linearGradient>
			<path style="fill:url(#SVGID_00000147189608671490314040000005069813839404181645_);" d="M2401.417,2051.752
				c0,0-71.066,32.299-72.227,37.455c-1.161,5.156,45.703-1.728,64.834-0.985c19.131,0.744,34.868-4.911,33.138-13.013
				c-1.733-8.104-8.429-28.485-8.429-28.485L2401.417,2051.752z"/>
			
				<linearGradient id="SVGID_00000066512543319755133420000004466912829431137723_" gradientUnits="userSpaceOnUse" x1="-2607.0803" y1="2064.7866" x2="-2610.29" y2="1832.0748" gradientTransform="matrix(1 0 0 1 5019.6431 0)">
				<stop  offset="0" style="stop-color:#FFC444"/>
				<stop  offset="0.9964" style="stop-color:#F36F56"/>
			</linearGradient>
			<path style="fill:url(#SVGID_00000066512543319755133420000004466912829431137723_);" d="M2398.817,2025.54l4.322,31.996
				c0,0,11.251,4.005,18.809-0.73l3.224-35.093L2398.817,2025.54z"/>
			
				<linearGradient id="SVGID_00000080885863033612543600000012136552616187860904_" gradientUnits="userSpaceOnUse" x1="-2319.0303" y1="1913.4823" x2="-2301.3762" y2="2138.1702" gradientTransform="matrix(1 0 0 1 5019.6431 0)">
				<stop  offset="0" style="stop-color:#311944"/>
				<stop  offset="1" style="stop-color:#A03976"/>
			</linearGradient>
			<path style="fill:url(#SVGID_00000080885863033612543600000012136552616187860904_);" d="M2733.492,2026.307l8.266,13.27
				c2.312,3.711,3.001,8.178,1.893,12.409c-2.891,11.035-8.664,32.54-11.182,38.147c-3.427,7.638-49.417,12.176-49.417,12.176
				s-4.1-5.771,5.448-12.742c9.548-6.97,15.685-8.066,19.055-18.353c3.369-10.285,5.618-39.38,5.618-39.38L2733.492,2026.307z"/>
			
				<linearGradient id="SVGID_00000117667241017832843550000008599773213979413437_" gradientUnits="userSpaceOnUse" x1="-2301.3267" y1="2060.5701" x2="-2304.5364" y2="1827.8502" gradientTransform="matrix(1 0 0 1 5019.6431 0)">
				<stop  offset="0" style="stop-color:#FFC444"/>
				<stop  offset="0.9964" style="stop-color:#F36F56"/>
			</linearGradient>
			<path style="fill:url(#SVGID_00000117667241017832843550000008599773213979413437_);" d="M2699.086,1992.584
				c3.02,2.407,17.79,47.239,17.79,47.239s4.781,6.114,13.864-2.909c9.081-9.023,4.11-4.047,4.11-4.047l-1.703-44.095
				L2699.086,1992.584z"/>
			
				<linearGradient id="SVGID_00000037678561179330838080000000412928538388160173_" gradientUnits="userSpaceOnUse" x1="-2662.6184" y1="1687.7957" x2="-2490.5557" y2="1687.7957" gradientTransform="matrix(1 0 0 1 5019.6431 0)">
				<stop  offset="0" style="stop-color:#444B8C"/>
				<stop  offset="0.9964" style="stop-color:#3E4177"/>
			</linearGradient>
			<path style="fill:url(#SVGID_00000037678561179330838080000000412928538388160173_);" d="M2359.716,1382.708
				c-3.75,95.445-3.902,199.142,1.59,309.921c6.182,124.746,18.609,240.044,34.268,344.56c5.822,0.186,11.939,0.216,18.329,0.037
				c4.315-0.12,8.496-0.33,12.537-0.609c8.126-21.672,17.731-50.172,26.333-84.213c9.043-35.795,14.499-67.903,18.385-98.606
				c13.685-108.105-2.353-117.536,8.753-197.652c9.836-70.955,23.824-73.725,40.245-174.465
				c17.816-109.306,4.553-125.705-1.896-131.628C2490.802,1324.833,2426.304,1342.002,2359.716,1382.708z"/>
			
				<linearGradient id="SVGID_00000062884127038823497490000016027350677680988040_" gradientUnits="userSpaceOnUse" x1="-2662.6189" y1="1687.8031" x2="-2490.5566" y2="1687.8031" gradientTransform="matrix(1 0 0 1 5019.6431 0)">
				<stop  offset="0" style="stop-color:#444B8C"/>
				<stop  offset="0.9964" style="stop-color:#3E4177"/>
			</linearGradient>
			<path style="opacity:0.3;fill:url(#SVGID_00000062884127038823497490000016027350677680988040_);" d="M2518.26,1350.053
				c-26.189-24.055-86.08-9.492-149.338,27.22c72.772,78.623,80.705,129.628,71.981,162.721
				c-9.859,37.403-39.836,48.175-39.722,89.074c0.141,50.26,45.501,63.574,44.537,116.758c-0.638,35.168-20.57,34.803-25.277,78.24
				c-5.569,51.395,20.471,69.104,12.036,107.13c-3.628,16.359-13.985,37.735-43.481,59.755c2.127,15.615,4.307,31.073,6.58,46.239
				c5.819,0.184,11.938,0.216,18.327,0.035c4.315-0.119,8.498-0.329,12.536-0.608c8.127-21.672,17.732-50.171,26.334-84.213
				c9.043-35.796,14.499-67.903,18.385-98.607c13.685-108.104-2.353-117.536,8.753-197.652
				c9.836-70.955,23.824-73.727,40.244-174.466C2537.972,1372.373,2524.709,1355.975,2518.26,1350.053z"/>
			
				<linearGradient id="SVGID_00000063621535534074506400000003130446648939065023_" gradientUnits="userSpaceOnUse" x1="-2614.8503" y1="1670.8352" x2="-2268.47" y2="1670.8352" gradientTransform="matrix(1 0 0 1 5019.6431 0)">
				<stop  offset="0" style="stop-color:#444B8C"/>
				<stop  offset="0.9964" style="stop-color:#3E4177"/>
			</linearGradient>
			<path style="fill:url(#SVGID_00000063621535534074506400000003130446648939065023_);" d="M2404.792,1381.105
				c62.659,91.683,130.244,205.788,190.685,342.366c45.675,103.212,78.802,200.119,103.124,286.484
				c3.291,1.524,11.055,4.563,20.975,3.252c13.531-1.79,21.641-10.427,23.761-12.838c9.898-61.912,8.808-114.347,5.448-152.19
				c-2.152-24.229-5.959-64.579-21.403-114.39c-17.299-55.796-29.191-58.932-51.76-117.963
				c-23.424-61.271-17.75-76.561-40.182-153.239c-9.215-31.499-24.642-78.374-50.095-134.445
				C2525.161,1345.796,2464.977,1363.451,2404.792,1381.105z"/>
			
				<linearGradient id="SVGID_00000072256669442009523850000006257853557444080278_" gradientUnits="userSpaceOnUse" x1="4051.5896" y1="1656.8042" x2="4179.1816" y2="934.5853" gradientTransform="matrix(-1 0 0 1 6480.5786 0)">
				<stop  offset="0" style="stop-color:#AA80F9"/>
				<stop  offset="0.9964" style="stop-color:#6165D7"/>
			</linearGradient>
			<path style="fill:url(#SVGID_00000072256669442009523850000006257853557444080278_);" d="M2115.503,1497.462
				c12.05,18.74,53.524,16.548,81.851,6.421c66.23-23.682,108.615-107.912,112.346-174.939c0.802-14.391,0.294-28.461,3.21-28.888
				c7.337-1.079,26.177,85.938,40.967,159.711c11.89,4.351,29.915,8.973,50.514,5.597c33.712-5.523,37.727-26.468,75.432-40.125
				c22-7.968,43.554-7.986,86.667-8.023c48.667-0.042,50.008,5.959,59.381,1.605c0,0,2.318-1.272,4.313-2.705
				c34.658-24.881-64.491-214-35.945-388.494c3.174-19.394,8.038-39.308-2.794-58.721c-27.992-50.166-138.621-57.239-207.16-24.225
				c-18.785,9.049-50.248,28.846-78.346,49.711c-11.23,8.339-22.91,17.673-35.094,28.316c-29.549,25.809-50.121,43.775-67.07,68.712
				c-68.345,100.557,10.643,184.362-51.357,312.961C2131.097,1448.594,2102.883,1477.838,2115.503,1497.462z"/>
			
				<linearGradient id="SVGID_00000146463812885463849130000006535407192359475861_" gradientUnits="userSpaceOnUse" x1="-2673.7974" y1="1055.5039" x2="-2673.7974" y2="916.4764" gradientTransform="matrix(1 0 0 1 5019.6431 0)">
				<stop  offset="0" style="stop-color:#FFC444"/>
				<stop  offset="0.9964" style="stop-color:#F36F56"/>
			</linearGradient>
			<path style="fill:url(#SVGID_00000146463812885463849130000006535407192359475861_);" d="M2299.264,926.554
				c0,0,17.793,20.203,36.917,30.674c17.284,9.461,55.383-6.477,64.198-8.348c8.814-1.872-1.762,21.865-18.394,38.224
				c-16.63,16.359-71.601,53.774-86.428,54.4c-14.826,0.627,2.388-12.358,11.492-27.476c9.105-15.119-3.726-46.377-15.217-56.008
				C2280.34,948.387,2299.264,926.554,2299.264,926.554z"/>
			
				<linearGradient id="SVGID_00000078741587766124642300000004627866983485561511_" gradientUnits="userSpaceOnUse" x1="-1363.1586" y1="2066.3772" x2="-1300.4877" y2="2066.3772" gradientTransform="matrix(0.9988 0.0509 -0.0509 0.9988 3618.8218 -451.0007)">
				<stop  offset="0" style="stop-color:#FFC444"/>
				<stop  offset="0.9964" style="stop-color:#F36F56"/>
			</linearGradient>
			<path style="fill:url(#SVGID_00000078741587766124642300000004627866983485561511_);" d="M2215.713,1527.135
				c0,0-26.156,10.893-44.357,12.526c-18.201,1.632-22.865,15.866-18.119,21.427c4.745,5.559,33.799,1.218,43.692-3.701
				C2206.822,1552.467,2215.713,1527.135,2215.713,1527.135z"/>
			<g>
				
					<linearGradient id="SVGID_00000036253007193856926110000004475285961183732357_" gradientUnits="userSpaceOnUse" x1="-3848.5488" y1="-1193.4525" x2="-3907.5874" y2="-1343.3998" gradientTransform="matrix(0.8789 -0.477 0.477 0.8789 6319.7207 210.4266)">
					<stop  offset="0" style="stop-color:#444B8C"/>
					<stop  offset="0.9964" style="stop-color:#3E4177"/>
				</linearGradient>
				<path style="fill:url(#SVGID_00000036253007193856926110000004475285961183732357_);" d="M2258.378,942.359
					c-20.191-1.533-40.59-26.399-36.469-37.252c1.178-3.102,3.801-3.594,43.325-10.105c19.628-3.232,29.438-4.565,36.221,0.859
					c4.141,3.31,7.373,9.214,8.393,14.79c0.524,2.87,0.552,6.821,0.06,14.693c-0.438,6.986-0.308,6.68-0.49,8.743
					c-0.436,4.956-1.787,13.675-6.619,25.761c-2.013-2.207-4.678-4.844-8.043-7.442c-1.294-1-6.416-4.87-12.24-7.216
					C2272.494,941.152,2264.931,942.857,2258.378,942.359z"/>
				
					<linearGradient id="SVGID_00000163065100281642180790000016063830061097534359_" gradientUnits="userSpaceOnUse" x1="-2772.0706" y1="1015.437" x2="-2707.071" y2="889.0485" gradientTransform="matrix(1 0 0 1 5019.6431 0)">
					<stop  offset="0" style="stop-color:#FFC444"/>
					<stop  offset="0.9964" style="stop-color:#F36F56"/>
				</linearGradient>
				<path style="fill:url(#SVGID_00000163065100281642180790000016063830061097534359_);" d="M2310.177,946.377
					c0,0-0.898,19.318-19.101,27.8c-16.3,7.593-37.932-26.437-31.98-39.431c1.984-4.335,8.134-9.05,14.433-10.511
					c3.721-0.863,5.546-0.119,11.599-1.647c5.581-1.409,6.666-2.708,8.822-2.273c2.696,0.543,6.133,3.61,8.702,15.616
					c1.337-4.685,4.303-7.826,7.516-8.019c0.512-0.031,1.996,0.113,3.213,0.894C2317.789,931.634,2316.927,938.797,2310.177,946.377
					z"/>
			</g>
			
				<linearGradient id="SVGID_00000166639429746070553420000006212188112836808356_" gradientUnits="userSpaceOnUse" x1="3753.7034" y1="1604.1781" x2="3881.2957" y2="881.9596" gradientTransform="matrix(-1 0 0 1 6480.5786 0)">
				<stop  offset="0" style="stop-color:#AA80F9"/>
				<stop  offset="0.9964" style="stop-color:#6165D7"/>
			</linearGradient>
			<path style="fill:url(#SVGID_00000166639429746070553420000006212188112836808356_);" d="M2745.696,1336.236
				c27.29-13.377,86.206-47.634,104.32-110.741c30.158-105.057-77.097-205.266-132.469-242.761
				c-63.486-42.99-127.28-49.932-166.048-54.151c-48.098-5.234-77.455-8.428-99.505,9.63
				c-57.025,46.702-22.747,200.803,33.704,216.666c18.48,5.193,25.474-8.326,64.198-17.656
				c12.611-3.037,106.733-25.712,155.677,24.074c34.256,34.845,38.632,97.298,14.445,155.679
				C2728.577,1323.397,2737.137,1329.817,2745.696,1336.236z"/>
			<g>
				
					<linearGradient id="SVGID_00000099626787772989633780000005860783189718321026_" gradientUnits="userSpaceOnUse" x1="5466.2539" y1="262.1139" x2="6267.27" y2="2140.8604" gradientTransform="matrix(-0.8966 0.4429 0.4429 0.8966 6956.2656 -1722.7372)">
					<stop  offset="0" style="stop-color:#AB316D"/>
					<stop  offset="1" style="stop-color:#792D3D"/>
				</linearGradient>
				<path style="fill:url(#SVGID_00000099626787772989633780000005860783189718321026_);" d="M1711.767,1694.444l88.47,26.329
					c5.485,1.632,11.424,1.126,16.706-1.425l44.859-21.664l-10.272-23.814l38.683-18.739l-8.792,20.205l19.084,3.656l36.349-17.554
					l-9.486-21.992l47.4-22.956l9.509,22.046l17.729-8.562l-4.899-11.359l39.997-19.344l-14.175,7.725l19.084,3.657l31.231-15.083
					l-10.384-24.073l22.357-10.83l-8.688,20.444l19.084,3.657l19.429-9.383l-10.406-24.125l38.95-18.868l-8.658,20.516l19.084,3.657
					l78.704-38.01c50.716,57.864,125.869,88.763,204.314,84.8c0.066-0.003,0.132-0.007,0.198-0.011
					c2.024-0.104,4.05-0.232,6.078-0.382c0.199-0.014,0.4-0.029,0.599-0.044c2.063-0.158,4.127-0.336,6.193-0.542
					c0.037-0.003,0.074-0.007,0.111-0.01c4.277-0.428,8.56-0.961,12.847-1.599c0.273-0.041,0.547-0.086,0.821-0.127
					c1.773-0.27,3.547-0.557,5.322-0.863c0.46-0.079,0.919-0.16,1.379-0.242c1.668-0.297,3.335-0.609,5.003-0.938
					c0.423-0.083,0.847-0.164,1.271-0.249c4.15-0.837,8.299-1.772,12.444-2.811c0.384-0.096,0.767-0.2,1.152-0.298
					c1.638-0.418,3.276-0.85,4.913-1.3c0.605-0.166,1.21-0.338,1.816-0.508c1.452-0.41,2.903-0.832,4.354-1.267
					c0.626-0.188,1.254-0.374,1.881-0.567c1.569-0.482,3.138-0.982,4.705-1.494c0.457-0.15,0.914-0.292,1.371-0.443
					c2.021-0.672,4.041-1.367,6.058-2.089c0.354-0.127,0.707-0.262,1.06-0.39c1.644-0.595,3.286-1.205,4.926-1.834
					c0.658-0.252,1.315-0.513,1.973-0.771c1.356-0.531,2.71-1.072,4.063-1.626c0.707-0.289,1.412-0.58,2.118-0.876
					c1.377-0.577,2.752-1.169,4.128-1.77c0.622-0.272,1.245-0.539,1.867-0.816c1.976-0.88,3.948-1.779,5.916-2.709
					c138.871-65.63,205.126-230.182,146.237-366.71c-58.889-136.528-219.426-190.556-356.837-121.545
					c-1.948,0.978-3.875,1.98-5.792,2.996c-0.604,0.321-1.2,0.648-1.801,0.972c-1.325,0.715-2.644,1.436-3.953,2.168
					c-0.673,0.376-1.343,0.756-2.011,1.137c-1.275,0.727-2.542,1.462-3.802,2.206c-0.616,0.364-1.233,0.724-1.846,1.092
					c-1.518,0.91-3.023,1.834-4.52,2.769c-0.321,0.201-0.647,0.396-0.968,0.598c-1.831,1.153-3.645,2.327-5.444,3.516
					c-0.406,0.269-0.806,0.544-1.211,0.815c-1.387,0.927-2.766,1.864-4.134,2.813c-0.548,0.38-1.092,0.764-1.636,1.147
					c-1.253,0.882-2.497,1.773-3.733,2.672c-0.521,0.379-1.043,0.758-1.56,1.14c-1.382,1.019-2.752,2.052-4.112,3.092
					c-0.327,0.251-0.659,0.498-0.985,0.75c-3.441,2.657-6.811,5.385-10.112,8.177c-0.346,0.292-0.688,0.589-1.032,0.882
					c-1.314,1.122-2.617,2.253-3.908,3.396c-0.364,0.322-0.727,0.644-1.089,0.968c-1.364,1.22-2.716,2.45-4.055,3.692
					c-0.221,0.205-0.444,0.407-0.663,0.612c-3.244,3.029-6.413,6.124-9.502,9.282c-0.04,0.041-0.079,0.082-0.119,0.123
					c-1.479,1.514-2.939,3.045-4.383,4.587c-0.153,0.163-0.305,0.328-0.458,0.492c-1.415,1.519-2.814,3.051-4.194,4.597
					c-0.059,0.066-0.118,0.132-0.177,0.198c-54.009,60.589-81.025,141.272-72.877,219.873l-454.069,223.282
					c-7.365,3.622-12.557,10.83-13.766,19.105l-7.378,50.533c-0.127,0.869-0.193,1.731-0.23,2.589
					c-0.01,0.242-0.008,0.482-0.011,0.722c-0.009,0.649,0.005,1.293,0.046,1.933c0.015,0.218,0.028,0.436,0.048,0.654
					c0.073,0.807,0.178,1.605,0.327,2.391c0.003,0.015,0.005,0.029,0.008,0.044
					C1697.509,1684.952,1703.43,1691.962,1711.767,1694.444z M2569.799,1327.752c-28.083,13.602-60.369,2.4-72.181-24.985
					c-11.812-27.385,1.274-60.697,29.296-74.438c28.102-13.779,60.567-2.666,72.44,24.859
					C2611.226,1280.712,2597.96,1314.112,2569.799,1327.752z"/>
				<g>
					
						<linearGradient id="SVGID_00000022539334082784854600000011273019699209718924_" gradientUnits="userSpaceOnUse" x1="5649.5322" y1="435.2696" x2="5276.8018" y2="1273.9128" gradientTransform="matrix(-0.9107 0.4131 0.4131 0.9107 6762.8716 -1375.1909)">
						<stop  offset="0" style="stop-color:#FFC444"/>
						<stop  offset="0.9964" style="stop-color:#F36F56"/>
					</linearGradient>
					<path style="fill:url(#SVGID_00000022539334082784854600000011273019699209718924_);" d="M2356.669,1445.819l-221.741,107.088
						l-10.427-24.173l-38.949,18.868l10.406,24.125l-19.428,9.383l-10.396-24.101l-22.357,10.83l10.384,24.074l-31.23,15.082
						l-4.909-11.381l-39.997,19.345l4.899,11.358l-17.729,8.562l-9.509-22.045l-47.401,22.957l9.486,21.992l-36.349,17.555
						l-10.292-23.861l-38.683,18.739l10.272,23.814l-44.859,21.664c-5.282,2.551-11.222,3.056-16.706,1.424l-88.471-26.329
						c-10.984-3.27-17.791-14.392-16.062-26.239l7.378-50.533c1.208-8.274,6.401-15.483,13.766-19.104l550.833-270.865
						L2356.669,1445.819z"/>
					
						<linearGradient id="SVGID_00000078754972481870811640000004178905262999504798_" gradientUnits="userSpaceOnUse" x1="5599.0649" y1="317.3702" x2="5226.3994" y2="1155.868" gradientTransform="matrix(-0.8966 0.4429 0.4429 0.8966 6956.2656 -1722.7372)">
						<stop  offset="0" style="stop-color:#FFC444"/>
						<stop  offset="0.9964" style="stop-color:#F36F56"/>
					</linearGradient>
					<path style="fill:url(#SVGID_00000078754972481870811640000004178905262999504798_);" d="M2311.912,1084.866
						c-135.534,68.068-197.49,230.524-140.05,363.694c57.44,133.169,213.678,189.294,350.65,124.56
						c138.87-65.63,205.126-230.182,146.237-366.709C2609.86,1069.883,2449.324,1015.855,2311.912,1084.866z M2507.83,1224.672
						c28.101-13.779,60.566-2.666,72.439,24.859c11.872,27.525-1.393,60.925-29.555,74.564c-28.083,13.601-60.369,2.4-72.181-24.985
						C2466.721,1271.724,2479.807,1238.412,2507.83,1224.672z"/>
					
						<linearGradient id="SVGID_00000003095505156471912950000009574789420722974371_" gradientUnits="userSpaceOnUse" x1="5517.9404" y1="335.2576" x2="6121.3242" y2="1750.4657" gradientTransform="matrix(-0.8966 0.4429 0.4429 0.8966 6956.2656 -1722.7372)">
						<stop  offset="0" style="stop-color:#FFC444"/>
						<stop  offset="0.9964" style="stop-color:#F36F56"/>
					</linearGradient>
					<path style="opacity:0.3;fill:url(#SVGID_00000003095505156471912950000009574789420722974371_);" d="M2151.833,1371.628
						l-454.069,223.283c-7.365,3.622-12.558,10.83-13.766,19.104l-7.378,50.533c-1.111,7.61,1.33,14.887,6.105,20.009
						c58-5.305,96.086-24.565,121.771-44.461c29.023-22.483,37.164-41.822,75.745-61.941c55.409-28.895,73.704-7.422,136.769-30.67
						c75.677-27.899,96.255-75.931,132.472-66.214c12.906,3.462,27.987,14.376,40.484,45.057l23.665-11.429
						c73.23,83.552,197.407,110.906,308.882,58.223c138.87-65.63,205.126-230.182,146.237-366.709
						c-58.889-136.528-219.425-190.556-356.837-121.545C2201.611,1140.262,2140.067,1258.123,2151.833,1371.628z M2550.714,1324.095
						c-28.083,13.601-60.369,2.4-72.181-24.985c-11.812-27.386,1.274-60.698,29.297-74.438
						c28.101-13.779,60.566-2.666,72.439,24.859C2592.141,1277.055,2578.876,1310.455,2550.714,1324.095z"/>
					
						<linearGradient id="SVGID_00000105413597225528220620000013118644035053505465_" gradientUnits="userSpaceOnUse" x1="5294.7397" y1="434.858" x2="5853.1724" y2="1744.6364" gradientTransform="matrix(-0.8966 0.4429 0.4429 0.8966 6956.2656 -1722.7372)">
						<stop  offset="0" style="stop-color:#FFC444"/>
						<stop  offset="0.9964" style="stop-color:#F36F56"/>
					</linearGradient>
					<path style="fill:url(#SVGID_00000105413597225528220620000013118644035053505465_);" d="M2332.579,1132.779
						c-109.195,54.52-159.319,185.255-113.04,292.548c46.278,107.292,172.183,152.244,282.308,99.881
						c111.35-52.945,164.251-185.034,117.037-294.495C2571.669,1121.251,2442.988,1077.653,2332.579,1132.779z M2507.83,1224.672
						c28.101-13.779,60.566-2.666,72.439,24.859c11.872,27.525-1.393,60.925-29.555,74.564c-28.083,13.601-60.369,2.4-72.181-24.985
						C2466.721,1271.724,2479.807,1238.412,2507.83,1224.672z"/>
				</g>
			</g>
			
				<linearGradient id="SVGID_00000067937302699816829740000012762927269958521507_" gradientUnits="userSpaceOnUse" x1="3759.1807" y1="1399.7987" x2="3773.0542" y2="1321.2706" gradientTransform="matrix(-1 0 0 1 6480.5786 0)">
				<stop  offset="0" style="stop-color:#FFC444"/>
				<stop  offset="0.9964" style="stop-color:#F36F56"/>
			</linearGradient>
			<path style="fill:url(#SVGID_00000067937302699816829740000012762927269958521507_);" d="M2740.189,1332.106l-14.449-10.837
				c0,0-9.065,6.277-20.144,5.418c-6.038-0.468-14.052,3.159-15.857,5.077c-1.806,1.917-10.222,6.526,1.825,5.322
				c12.045-1.204,13.979,2.153,12.301,8.172c-1.678,6.019-11.73,22.87-16.835,26.481c-5.105,3.612,9.54,6.018,15.559,3.813
				c6.018-2.208,15.648-6.22,22.669-19.26C2727.817,1351.537,2740.189,1332.106,2740.189,1332.106z"/>
		</g>
		<g>
			
				<linearGradient id="SVGID_00000061468668007700479190000015835814801486160021_" gradientUnits="userSpaceOnUse" x1="636.9073" y1="900.4816" x2="1383.7794" y2="900.4816">
				<stop  offset="0" style="stop-color:#311944"/>
				<stop  offset="1" style="stop-color:#893976"/>
			</linearGradient>
			<path style="fill:url(#SVGID_00000061468668007700479190000015835814801486160021_);" d="M1320.286,994.108
				c32.012,2.696,60.329-23.218,63.25-57.881c2.919-34.662-20.665-64.948-52.677-67.643c-1.659-0.14-3.301-0.156-4.936-0.147
				c-1.527-17.903-4.318-35.438-8.336-52.483c1.519-0.621,3.036-1.267,4.531-2.035c29.183-14.997,41.914-52.58,28.436-83.948
				c-13.477-31.367-48.061-44.638-77.243-29.642c-1.526,0.786-2.979,1.666-4.414,2.569c-9.527-14.387-20.078-27.937-31.563-40.534
				c1.061-1.38,2.105-2.785,3.074-4.283c18.534-28.67,12.268-67.854-13.994-87.522c-26.264-19.665-62.579-12.365-81.113,16.305
				c-0.95,1.469-1.791,2.981-2.611,4.502c-14.826-7.156-30.305-13.081-46.332-17.716c0.284-1.746,0.545-3.503,0.696-5.298
				c2.92-34.662,9.236-73.797-22.814-75.991c-74.141-5.077-90.192,31.565-93.111,66.227c-0.151,1.796-0.188,3.571-0.2,5.341
				c-16.577,1.891-32.828,5.143-48.642,9.717c-0.554-1.636-1.132-3.267-1.822-4.875c-13.477-31.366-11.044-52.291-41.678-40.537
				c-66.8,25.628-77.479,63.478-64.002,94.844c0.705,1.639,1.499,3.198,2.315,4.737c-13.43,10.498-26.099,22.092-37.899,34.683
				c-1.262-1.131-2.547-2.241-3.921-3.27c-26.262-19.666-62.578-12.367-81.112,16.304c-18.535,28.671-12.269,67.855,13.995,87.521
				c1.344,1.008,2.731,1.897,4.126,2.766c-6.813,16.131-12.496,32.953-16.998,50.349c-1.61-0.283-3.232-0.542-4.889-0.681
				c-32.012-2.697-60.329,23.218-63.25,57.881c-2.92,34.661,20.664,64.947,52.677,67.643c1.659,0.139,3.301,0.156,4.936,0.145
				c1.527,17.904,4.318,35.439,8.336,52.484c-1.519,0.622-3.036,1.266-4.53,2.034c-29.183,14.999-41.914,52.581-28.437,83.948
				c13.477,31.367,48.061,44.637,77.245,29.641c1.525-0.783,2.978-1.664,4.412-2.568c9.528,14.388,20.079,27.937,31.563,40.534
				c-1.06,1.38-2.105,2.785-3.073,4.284c-18.534,28.67-12.268,67.855,13.994,87.521c26.265,19.667,83.117,10.668,101.651-18.001
				c0.949-1.469-18.746-1.283-17.927-2.803c14.825,7.155,30.304,13.08,46.331,17.715c-0.284,1.746-0.545,3.505-0.696,5.299
				c-2.92,34.662,20.665,64.948,52.677,67.643c32.012,2.697,60.329-23.218,63.248-57.88c0.151-1.795,0.188-3.571,0.2-5.341
				c16.578-1.889,32.828-5.141,48.642-9.715c0.554,1.636,1.131,3.266,1.822,4.874c13.477,31.366,48.06,44.637,77.244,29.64
				c29.182-14.997,41.913-52.581,28.437-83.946c-0.705-1.639-1.5-3.2-2.315-4.737c13.431-10.498,26.099-22.092,37.899-34.684
				c1.262,1.131,2.548,2.242,3.921,3.269c26.263,19.666,62.578,12.368,81.113-16.304c18.534-28.672,12.268-67.855-13.995-87.522
				c-1.345-1.006-2.732-1.896-4.126-2.764c6.812-16.132,12.496-32.953,16.997-50.35
				C1317.006,993.709,1318.627,993.967,1320.286,994.108z M991.151,1132.67c-116.229-9.79-201.857-119.747-191.258-245.599
				c10.6-125.852,113.415-219.937,229.642-210.148c116.229,9.788,201.857,119.747,191.258,245.599
				C1210.193,1048.372,1107.379,1142.459,991.151,1132.67z"/>
			
				<linearGradient id="SVGID_00000008145507129248982870000009712253165242531755_" gradientUnits="userSpaceOnUse" x1="1061.0992" y1="898.5641" x2="1383.7787" y2="898.5641">
				<stop  offset="0" style="stop-color:#311944"/>
				<stop  offset="1" style="stop-color:#893976"/>
			</linearGradient>
			<path style="fill:url(#SVGID_00000008145507129248982870000009712253165242531755_);" d="M1322.117,813.919
				c29.183-14.997,41.913-52.581,28.436-83.948c-13.477-31.367-48.061-44.638-77.244-29.641c-1.526,0.783-2.978,1.665-4.411,2.567
				c-9.529-14.388-20.08-27.937-31.564-40.534c1.062-1.379,2.105-2.785,3.074-4.284c18.535-28.668,32.773-85.539,4.632-102.406
				c-53.411-32.014-81.205,2.52-99.74,31.19c-0.95,1.469-1.791,2.979-2.612,4.5c-14.826-7.155-30.304-13.079-46.331-17.715
				c0.284-1.746,0.545-3.503,0.696-5.298c1.59-18.866-4.714-36.393-15.912-48.923c-7.135,54.202-13.859,108.45-20.043,162.76
				c99.75,25.109,169.308,126.178,159.693,240.334c-8.147,96.735-70.798,174.64-152.121,201.094
				c0.188,10.574,0.459,21.172,0.361,31.761c-0.267,28.732-2.13,57.525-4.021,86.292c7.891-1.594,15.693-3.497,23.389-5.721
				c0.554,1.638,1.13,3.267,1.821,4.875c13.477,31.367,43.59,50.438,97.284,25.24c29.703-13.939,21.874-48.18,8.396-79.547
				c-0.704-1.638-1.499-3.198-2.315-4.737c13.431-10.498,26.099-22.092,37.899-34.683c1.262,1.131,2.549,2.242,3.921,3.268
				c26.264,19.668,85.182,8.627,103.716-20.045c18.535-28.671-10.335-64.112-36.598-83.78c-1.345-1.007-2.732-1.896-4.127-2.765
				c6.813-16.131,12.498-32.954,16.998-50.349c1.611,0.286,3.232,0.544,4.89,0.681c32.013,2.699,60.33-23.216,63.25-57.88
				c2.919-34.661-20.664-64.947-52.676-67.642c-1.659-0.14-3.3-0.156-4.936-0.147c-1.527-17.903-4.318-35.438-8.335-52.481
				C1319.106,815.333,1320.622,814.687,1322.117,813.919z"/>
			
				<linearGradient id="SVGID_00000027582603891051660600000001661605068001308553_" gradientUnits="userSpaceOnUse" x1="1130.9882" y1="697.0677" x2="236.2507" y2="2662.1438">
				<stop  offset="0" style="stop-color:#FFC444"/>
				<stop  offset="0.9964" style="stop-color:#F36F56"/>
			</linearGradient>
			<path style="fill:url(#SVGID_00000027582603891051660600000001661605068001308553_);" d="M1350.148,985.761
				c32.012,2.695,60.33-23.218,63.25-57.881c2.919-34.662-20.665-64.948-52.677-67.643c-1.659-0.14-3.3-0.156-4.936-0.147
				c-1.528-17.904-4.318-35.439-8.335-52.483c1.52-0.622,3.036-1.267,4.53-2.037c29.183-14.995,41.914-52.579,28.437-83.946
				c-13.477-31.367-48.061-44.638-77.243-29.642c-1.526,0.786-2.979,1.666-4.414,2.568c-9.527-14.388-20.078-27.937-31.562-40.534
				c1.06-1.38,2.105-2.785,3.074-4.284c18.534-28.668,12.268-67.854-13.994-87.52c-26.264-19.666-62.58-12.367-81.114,16.303
				c-0.95,1.471-1.791,2.981-2.611,4.502c-14.826-7.155-30.304-13.079-46.331-17.715c0.284-1.746,0.545-3.503,0.696-5.299
				c2.92-34.663-20.665-64.948-52.677-67.644c-32.011-2.696-60.328,23.217-63.248,57.88c-0.151,1.795-0.188,3.571-0.2,5.34
				c-16.576,1.889-32.828,5.141-48.641,9.716c-0.554-1.636-1.132-3.267-1.821-4.875c-13.478-31.365-48.061-44.636-77.244-29.641
				c-29.184,14.997-41.914,52.581-28.437,83.948c0.705,1.638,1.499,3.198,2.315,4.737c-13.43,10.498-26.099,22.092-37.899,34.683
				c-1.262-1.131-2.547-2.241-3.919-3.27c-26.264-19.667-62.579-12.367-81.114,16.305c-18.535,28.671-12.268,67.855,13.995,87.52
				c1.345,1.009,2.731,1.898,4.126,2.765c-6.812,16.133-12.496,32.953-16.998,50.35c-1.611-0.284-3.231-0.543-4.89-0.682
				c-32.012-2.696-60.33,23.218-63.248,57.88c-2.92,34.662,20.664,64.948,52.676,67.644c1.659,0.14,3.301,0.156,4.936,0.146
				c1.527,17.904,4.318,35.439,8.337,52.482c-1.52,0.623-3.037,1.268-4.531,2.035c-29.184,14.997-41.914,52.581-28.437,83.948
				c13.477,31.367,48.061,44.637,77.243,29.64c1.525-0.783,2.979-1.662,4.413-2.566c9.528,14.388,20.078,27.937,31.564,40.533
				c-1.062,1.381-2.107,2.786-3.075,4.284c-18.534,28.668-12.268,67.855,13.995,87.52c26.262,19.666,62.578,12.367,81.113-16.303
				c0.948-1.47,1.79-2.981,2.61-4.501c14.826,7.156,30.305,13.079,46.331,17.715c-0.284,1.746-0.545,3.503-0.696,5.299
				c-2.919,34.662,20.666,64.948,52.677,67.643c32.012,2.696,60.329-23.218,63.248-57.88c0.151-1.795,0.188-3.571,0.2-5.341
				c16.578-1.889,32.828-5.141,48.642-9.717c0.555,1.637,1.131,3.267,1.822,4.874c13.477,31.366,48.06,44.637,77.244,29.641
				c29.182-14.997,41.914-52.581,28.437-83.946c-0.705-1.639-1.5-3.199-2.316-4.739c13.431-10.498,26.099-22.092,37.899-34.683
				c1.262,1.13,2.549,2.24,3.92,3.268c26.264,19.667,62.579,12.368,81.114-16.303c18.535-28.672,12.268-67.855-13.995-87.522
				c-1.346-1.007-2.732-1.896-4.127-2.764c6.813-16.132,12.498-32.954,16.998-50.35
				C1346.869,985.363,1348.491,985.62,1350.148,985.761z M1021.014,1124.322c-116.229-9.788-201.857-119.746-191.257-245.598
				c10.599-125.852,113.414-219.938,229.641-210.148c116.228,9.789,201.856,119.746,191.258,245.597
				C1240.056,1040.026,1137.242,1134.112,1021.014,1124.322z"/>
		</g>
		<g>
			<g>
				
					<linearGradient id="SVGID_00000152956901345397221340000017970033640301429890_" gradientUnits="userSpaceOnUse" x1="-558.7972" y1="1965.8287" x2="-901.6608" y2="4620.2397" gradientTransform="matrix(-0.996 -0.0892 -0.0892 0.996 509.2159 18.7124)">
					<stop  offset="0" style="stop-color:#AA80F9"/>
					<stop  offset="0.9964" style="stop-color:#6165D7"/>
				</linearGradient>
				<path style="fill:url(#SVGID_00000152956901345397221340000017970033640301429890_);" d="M987.594,3154.586
					c43.756,0.444,100.423-6.651,156.898-36.753c61.103-32.568,143.231-103.39,127.984-154.016
					c-5.692-18.901-25.387-36.412-44.062-36.584c-27.589-0.254-34.186,37.509-85.46,74.635
					c-9.476,6.861-58.467,42.335-79.869,26.987c-10.64-7.631-12.318-26.285-9.236-40.077c9.011-40.327,59.396-42.131,111.249-82.017
					c52.572-40.439,100.049-114.943,81.641-169.836c-10.578-31.545-43.603-58.668-67.327-54
					c-10.139,1.995-17.126,9.509-52.93,71.633c-29.387,50.989-36.252,66.005-52.578,69.627c-16.805,3.728-41.626-5.061-49.84-22.025
					c-21.392-44.179,92.838-96.349,113.217-212.8c9.132-52.185,1.887-131.392-44.234-152.361
					c-31.179-14.176-78.583-1.036-97.806,27.011c-17.33,25.283-0.968,46.939-17.725,105.723
					c-5.085,17.838-15.549,54.546-30.75,55.16c-17.846,0.72-33.317-48.666-36.84-60.671
					c-26.522-90.383,16.876-131.752-11.708-177.035c-22.29-35.31-76.043-53.505-121.062-40.71
					c-39.394,11.197-73.264,46.454-78.825,85.639c-5.658,39.868,24.459,82.758,84.692,168.538
					c28.564,40.678,51.697,68.506,46.884,105.965c-2.346,18.261-11.92,43.384-25.255,44.563
					c-29.432,2.602-33.244-115.318-100.282-139.48c-34.314-12.368-79.604,1.843-101.629,31.8
					c-26.986,36.704-16.161,93.122,10.784,124.692c35.157,41.19,77.246,16.049,146.127,63.081
					c30.557,20.864,77.684,63.645,67.448,94.615c-4.456,13.485-20.1,25.679-36.105,26.059c-35.875,0.85-42.391-58.401-97.195-89.099
					c-39.484-22.117-96.543-25.217-112.131-3.229c-22.008,31.042,39.08,111.463,72.156,147.543
					C693.808,3050.778,789.751,3135.291,987.594,3154.586z"/>
				<g style="opacity:0.5;">
					<path style="fill:#FFFFFF;" d="M971.918,3134.506c14.512-97.181-32.3-301.782-70.903-399.941
						c-37.615-95.648-68.495-244.51-68.803-246.002l-7.22,1.488c0.308,1.499,31.313,150.971,69.163,247.212
						c38.308,97.411,84.806,300.165,70.472,396.155L971.918,3134.506z"/>
				</g>
			</g>
			
				<linearGradient id="SVGID_00000167368944464726654330000001742864745461701519_" gradientUnits="userSpaceOnUse" x1="-603.4662" y1="2695.7351" x2="-1032.8282" y2="3210.4519" gradientTransform="matrix(-0.996 -0.0892 -0.0892 0.996 509.2159 18.7124)">
				<stop  offset="0.0036" style="stop-color:#E38DDD"/>
				<stop  offset="1" style="stop-color:#9571F6"/>
			</linearGradient>
			<path style="fill:url(#SVGID_00000167368944464726654330000001742864745461701519_);" d="M1088.865,3176.45
				c36.784-42.491,92.114-120.147,110.539-229.021c7.593-44.862,22.421-132.484-24.744-213.437
				c-23.508-40.348-75.542-101.567-115.545-88.834c-25.74,8.193-44.687,46.427-40.384,77.178
				c4.339,31.006,29.758,36.119,53.098,90.167c8.637,20,18.45,43.447,8.237,55.282c-8.528,9.885-29.532,9.941-44.583,2.207
				c-31.09-15.976-17.412-55.24-49.71-87.174c-22.966-22.708-63.447-36.041-82.791-20.859
				c-16.796,13.182-17.146,47.459-5.489,71.373c18.665,38.292,58.923,31.155,80.989,73.167c9.789,18.638,15.487,45.976,4.596,55.608
				c-12.411,10.975-44.844-2.382-65.039-17.552c-26.663-20.028-26.038-38.742-44.421-42.741
				c-20.504-4.46-48.199,12.967-54.211,34.452c-8.419,30.092,26.168,66.458,54.612,83.459
				c36.415,21.765,65.659,13.524,82.001,40.268c5.998,9.815,10.902,25.398,4.491,34.014c-9.146,12.292-37.609,5.414-56.507,0.847
				c-45.994-11.114-57.314-29.168-74.752-22.45c-17.656,6.801-28.894,34.108-23.346,54.466
				c3.084,11.314,13.774,29.369,73.326,45.407C920.917,3183.504,991.598,3195.105,1088.865,3176.45z"/>
		</g>
	</g>
</g>
</svg>
